<?xml version="1.0" encoding="UTF-8"?>
<!-- Generator: Adobe Illustrator 25.0.0, SVG Export Plug-In . SVG Version: 6.00 Build 0)  -->
<svg version="1.1" id="Слой_1" xmlns="http://www.w3.org/2000/svg" xmlns:xlink="http://www.w3.org/1999/xlink" x="0px" y="0px" viewBox="0 0 110.5 120" style="enable-background:new 0 0 110.5 120;" xml:space="preserve">
<style type="text/css">
	.st0{fill-rule:evenodd;clip-rule:evenodd;fill:#D507D3;}
	.st1{fill-rule:evenodd;clip-rule:evenodd;fill:#7C06EC;}
	.st2{fill-rule:evenodd;clip-rule:evenodd;fill:#FFFFFF;}
	.st3{fill-rule:evenodd;clip-rule:evenodd;fill:#FAE925;}
	.st4{fill-rule:evenodd;clip-rule:evenodd;fill:#F613D8;}
	.st5{fill-rule:evenodd;clip-rule:evenodd;fill:url(#Фигура_6_1_);}
	.st6{fill-rule:evenodd;clip-rule:evenodd;fill:#FADD2E;}
	.st7{fill-rule:evenodd;clip-rule:evenodd;fill:#8006EC;}
</style>
<g>
	<path id="Фигура_9_3_" class="st0" d="M98.2,0.8c0,0-5.8-2.8-5.7,1.8c0.1,4.6,10.6,2.4,13.1,15   C105.6,17.6,109.6,6.9,98.2,0.8z"/>
	<path id="Эллипс_37_копия_3_" class="st1" d="M39.1,40.7c2.6-0.2,5,1.6,5.5,4.2c0.6,2.8-1.1,5.7-4.1,6.3   c-3.2,0.7-6.1-1.7-6.3-4.9C34.1,43.3,36.3,40.9,39.1,40.7z"/>
	<path id="gas_fort_1_" class="st2" d="M5,28.4C6.1,31,7.7,33,9.5,34.6c1.9,1.6,4,2.8,6.3,3.6c2.3,0.8,4.7,1.3,7.2,1.3   c3.9,0,7.3-0.9,10.5-2.7c3.1-1.8,5.3-4.6,6.6-8.4c1-3,1.4-6.7,1-11.1h-18v8.4h8.1c-0.9,1.7-1.9,3-3.2,3.6s-3,1-5,1   c-2.9,0-5.2-0.9-7-2.8c-1.7-1.9-2.6-4.4-2.6-7.7c0-3,0.8-5.6,2.5-7.6s4-3.1,7-3.1c1.9,0,3.5,0.3,4.7,1c1.2,0.7,2.3,1.7,3.1,3.2h9.7   c-0.7-3-1.9-5.4-3.8-7.5s-4-3.5-6.3-4.4c-2.4-0.9-4.9-1.3-7.5-1.3c-3.3,0-6.5,0.7-9.4,2.1C10.7,3.7,8.2,6,6.3,9s-3,6.7-3,10.9   C3.3,23,3.9,25.9,5,28.4z M72.2,38.9v-5.1c-0.7,0-1.2-0.1-1.5-0.4c-0.3-0.2-0.5-0.6-0.6-0.9c-0.1-0.6-0.1-1.1-0.1-1.7v-8.5   c0-3.7-1.2-6.3-3.6-8s-5.6-2.4-9.5-2.4c-3.8,0-7.2,0.6-10,1.9l1.1,6.6c1.9-0.9,4.3-1.4,7.3-1.4c3.8,0,5.7,1,5.7,3v0.8   c-1.5-1-3.5-1.5-5.9-1.5c-3.2,0-5.7,0.8-7.6,2.5s-2.8,4.1-2.6,7.3c0.1,2.5,1,4.5,2.9,6c1.9,1.5,4.1,2.3,6.6,2.3   c1.7,0,3.5-0.3,5.1-1c1.6-0.7,2.7-1.7,3.4-3.1C63.3,39.1,66.4,40.3,72.2,38.9L72.2,38.9L72.2,38.9z M59.5,31.5   c-0.9,0.6-2,0.9-3.1,0.9c-1.5,0-2.3-0.6-2.5-1.9c-0.2-0.9,0-1.7,0.5-2.2c0.5-0.5,1.3-0.9,2.3-0.9c1.6-0.1,3,0.3,4.2,1.2v0.5   C60.9,30.1,60.4,30.9,59.5,31.5z M88,39.7c3.2,0,6-0.8,8.4-2.3c2.4-1.5,3.6-3.7,3.7-6.5c0-1.3-0.2-2.5-0.7-3.5   c-0.5-1-1-1.7-1.7-2.3c-0.7-0.5-1.6-1-2.8-1.4c-1-0.3-2.1-0.6-3.1-0.8c-0.9-0.1-2.1-0.3-3.6-0.4c-0.1,0-0.3,0-0.4-0.1   c-0.2,0-0.4-0.1-0.5-0.1c-0.1,0-0.3,0-0.5-0.1c-0.2,0-0.3,0-0.5-0.1c-0.1-0.1-0.3-0.1-0.4-0.2c-0.1,0-0.3-0.1-0.4-0.2   c-0.1-0.1-0.2-0.2-0.2-0.3c-0.1-0.1-0.1-0.2-0.2-0.4c0-0.2,0-0.3,0-0.5c0-0.5,0.3-0.9,0.8-1.2c0.5-0.3,1.2-0.5,2-0.5   c0.8,0,1.5,0.1,2.2,0.5c0.7,0.4,1,0.9,1.1,1.5h8.1c0.1-2.7-0.9-4.9-3.3-6.5c-2.3-1.6-5.1-2.4-8.4-2.4c-3.2,0-6,0.8-8.3,2.3   s-3.5,3.8-3.5,6.6c0,1.2,0.3,2.3,0.8,3.3c0.5,0.9,1.1,1.7,1.8,2.2c0.7,0.5,1.6,1,2.9,1.4c1,0.3,2.1,0.6,3.1,0.8   c0.9,0.1,1.9,0.3,3.3,0.4c0.5,0.1,1,0.1,1.4,0.2c0.4,0.1,0.7,0.3,1,0.6c0.3,0.3,0.5,0.7,0.5,1.2c0,0.7-0.3,1.2-0.9,1.5   S88.5,33,87.6,33c-0.8,0-1.6-0.2-2.2-0.6c-0.6-0.4-0.9-1-0.9-1.8h-9.1C75.7,36.7,79.8,39.7,88,39.7L88,39.7L88,39.7z M16.4,82.3   V62.5h7.7V56h-7.7v-2.6c0-3.8,2.7-4.9,8-3.3l0.9-6.9c-2.4-0.6-4.6-1-6.7-1c-1.9-0.1-3.9,0.2-5.7,0.8c-1.8,0.6-3.2,1.8-4.2,3.5   c-1,1.7-1.5,4-1.5,6.7L7.2,56H2.6v6.6h4.5v19.8H16.4z M40.4,55.2c-3.8,0-7.1,1.2-9.8,3.7c-2.8,2.4-4.1,5.8-4.1,10.2   c0,3,0.7,5.5,2.1,7.7c1.4,2.2,3.1,3.8,5.2,4.8c2.1,1,4.5,1.5,6.8,1.4c3.8,0,7.1-1.3,9.8-3.7c2.8-2.4,4.1-5.8,4.1-10.2   c0-4.4-1.4-7.8-4.2-10.2C47.6,56.4,44.3,55.2,40.4,55.2L40.4,55.2L40.4,55.2z M40.6,63.3c1.3,0,2.4,0.6,3.3,1.6   c0.9,1,1.4,2.4,1.4,4.2c0,1.8-0.5,3.2-1.4,4.2c-0.9,1-2,1.5-3.3,1.6c-1.3,0-2.4-0.5-3.4-1.5c-0.9-1-1.4-2.4-1.4-4.3   c0-1.8,0.5-3.2,1.4-4.3C38.2,63.8,39.3,63.3,40.6,63.3L40.6,63.3L40.6,63.3z M67.9,56.7c-0.8-0.7-1.8-1.1-3.1-1.2   c-1.2-0.1-2.3-0.2-3.5-0.1c-1.1,0.1-2.2,0.3-3.3,0.5V61c0.7,0,1.3,0.1,1.6,0.4c0.3,0.2,0.5,0.5,0.6,0.9c0.1,0.3,0.1,0.9,0.1,1.7   v18.4h9.1V69.1c0-1.9,0.5-3.4,1.6-4.4c1.1-1.1,2.5-1.6,4.2-1.7c1.6-0.1,3.2,0.4,4.5,1.3l1.9-7.5c-1.5-1.1-3.3-1.7-5.4-1.6   c-1.5,0-3,0.4-4.4,1.1c-1.3,0.7-2.2,1.8-2.7,3.2C69.2,58.3,68.7,57.3,67.9,56.7L67.9,56.7z M88.6,47.8l-1,8.1h-4.6v6l4.6,0.6v9.4   c0,2.7,0.5,4.9,1.6,6.6c1,1.7,2.4,2.9,4.2,3.6c1.8,0.6,3.7,0.9,5.8,0.9c2.1,0,4.4-0.4,6.7-1l-0.8-6.9c-1.2,0.5-2.4,0.7-3.7,0.8   c-1.2,0.1-2.3-0.2-3.3-0.9c-1-0.7-1.5-1.7-1.5-3.2v-9.2h8V56h-8v-8.1L88.6,47.8L88.6,47.8z"/>
	<path id="Фигура_7_3_" class="st3" d="M97.8,110C54,101,60.3,91.8,34,103.4C5.1,116,2.9,94.8,2.9,94.8s10.2,12.4,28.2,3.8   c7.4-3.5,16.9-13.1,28.8-13.1c17.6,0,17.3,20.5,36.1,14.7c8.3-2.6,17.4-4.7,13.5,5.5"/>
	<path id="Фигура_8_3_" class="st4" d="M75.4,100.8l-17.1-1.2L44,102.4c0,0-26.9,14-39.7-5.3c-0.5-0.7-1.9-0.8-2.3-1.3   c-1.2-1.4-1.8-3.6-1.9-2.9c-0.7,4.7,2,14,9.4,19.4c0,0,12.4,9.5,28,0.1c13.6-8.2,19.7-6.3,25.6-4.6c12.2,3.5,19.7,17.2,36.3,10.2"/>
	
		<linearGradient id="Фигура_6_1_" gradientUnits="userSpaceOnUse" x1="9.508059e-02" y1="1809.3798" x2="110.0083" y2="1820.9321" gradientTransform="matrix(1 0 0 -1 0 1920.1411)">
		<stop offset="0" style="stop-color:#5209EA"/>
		<stop offset="1" style="stop-color:#F000EE"/>
	</linearGradient>
	<path id="Фигура_6_3_" class="st5" d="M110,105.9c-1,6.2-5.6,13.3-18.2,13.4c-11.5,0.2-17-17.6-29.4-18.5   c-10.6-0.8-15.2,0.7-30.5,6.9C14,115,5.1,102.8,5.1,102.8c-2.3-2.4-4.4-7.7-4.4-7.7s-1.7-4.4,0.7-2.1c8.2,8.3,17.9,16.8,40.6,6.6   c40.5-18.2,28.7,13.2,57.2,4.3C106.7,101.6,110.9,100.5,110,105.9z"/>
	<path id="Эллипс_37_3_" class="st6" d="M95.9,87.8c1.8-0.1,3.4,1.4,3.6,3.3c0.2,1.8-0.9,3.7-2.6,4.2c-1.9,0.5-4-0.8-4.3-3.1   C92.3,89.9,93.9,87.9,95.9,87.8z"/>
	<path id="Фигура_10_3_" class="st7" d="M45.3,113.6c0,0-4.5,4.7,0.4,6c5.3,1.5,8.2-8.5,23.9-0.4   C69.6,119.2,56,104.2,45.3,113.6z"/>
</g>
</svg>