<svg width="141" height="24" viewBox="0 0 141 24" fill="none" xmlns="http://www.w3.org/2000/svg">
<path d="M23.064 10.968V12.696C23.064 15.896 22.04 18.488 19.992 20.472C17.944 22.456 15.2987 23.448 12.056 23.448C8.6 23.448 5.73067 22.328 3.448 20.088C1.18667 17.8267 0.056 15.0747 0.056 11.832C0.056 8.568 1.176 5.80533 3.416 3.544C5.67733 1.28267 8.472 0.151999 11.8 0.151999C13.8907 0.151999 15.8 0.631999 17.528 1.592C19.256 2.53067 20.6 3.78933 21.56 5.368L17.784 7.544C17.2507 6.62667 16.44 5.88 15.352 5.304C14.2853 4.728 13.0907 4.44 11.768 4.44C9.63467 4.44 7.87467 5.144 6.488 6.552C5.12267 7.93867 4.44 9.69867 4.44 11.832C4.44 13.944 5.13333 15.6933 6.52 17.08C7.928 18.4453 9.784 19.128 12.088 19.128C13.7947 19.128 15.2027 18.7547 16.312 18.008C17.4427 17.24 18.2107 16.1947 18.616 14.872H11.832V10.968H23.064ZM39.7925 23L38.4485 18.968H29.5205L28.1765 23H23.4085L31.2485 0.599998H36.7205L44.5925 23H39.7925ZM30.9285 14.84H37.0725L34.0005 5.688L30.9285 14.84ZM53.9155 23.448C51.6968 23.448 49.8302 22.9573 48.3155 21.976C46.8008 20.9733 45.7342 19.6187 45.1155 17.912L48.8915 15.704C49.7662 17.9867 51.4835 19.128 54.0435 19.128C55.2808 19.128 56.1875 18.904 56.7635 18.456C57.3395 18.008 57.6275 17.4427 57.6275 16.76C57.6275 15.9707 57.2755 15.3627 56.5715 14.936C55.8675 14.488 54.6088 14.008 52.7955 13.496C51.7928 13.1973 50.9395 12.8987 50.2355 12.6C49.5528 12.3013 48.8595 11.9067 48.1555 11.416C47.4728 10.904 46.9502 10.264 46.5875 9.496C46.2248 8.728 46.0435 7.832 46.0435 6.808C46.0435 4.78133 46.7582 3.17067 48.1875 1.976C49.6382 0.759999 51.3768 0.151999 53.4035 0.151999C55.2168 0.151999 56.8062 0.599998 58.1715 1.496C59.5582 2.37067 60.6355 3.59733 61.4035 5.176L57.6915 7.32C56.7955 5.4 55.3662 4.44 53.4035 4.44C52.4862 4.44 51.7608 4.65333 51.2275 5.08C50.7155 5.48533 50.4595 6.01867 50.4595 6.68C50.4595 7.384 50.7475 7.96 51.3235 8.408C51.9208 8.83467 53.0515 9.304 54.7155 9.816C55.3982 10.0293 55.9102 10.2 56.2515 10.328C56.6142 10.4347 57.0942 10.616 57.6915 10.872C58.3102 11.1067 58.7795 11.3307 59.0995 11.544C59.4408 11.7573 59.8248 12.0453 60.2515 12.408C60.6782 12.7707 60.9982 13.144 61.2115 13.528C61.4462 13.912 61.6382 14.3813 61.7875 14.936C61.9582 15.4693 62.0435 16.056 62.0435 16.696C62.0435 18.7653 61.2862 20.408 59.7715 21.624C58.2782 22.84 56.3262 23.448 53.9155 23.448ZM78.1435 4.824H69.1835V10.136H77.8875V14.36H69.1835V23H64.7675V0.599998H78.1435V4.824ZM100.209 20.088C97.9479 22.328 95.1959 23.448 91.9533 23.448C88.7106 23.448 85.9586 22.328 83.6973 20.088C81.4573 17.8267 80.3372 15.064 80.3372 11.8C80.3372 8.536 81.4573 5.784 83.6973 3.544C85.9586 1.28267 88.7106 0.151999 91.9533 0.151999C95.1959 0.151999 97.9479 1.28267 100.209 3.544C102.471 5.784 103.601 8.536 103.601 11.8C103.601 15.064 102.471 17.8267 100.209 20.088ZM86.8013 17.08C88.1879 18.4453 89.9053 19.128 91.9533 19.128C94.0013 19.128 95.7186 18.4453 97.1053 17.08C98.4919 15.6933 99.1853 13.9333 99.1853 11.8C99.1853 9.66667 98.4919 7.90667 97.1053 6.52C95.7186 5.13333 94.0013 4.44 91.9533 4.44C89.9053 4.44 88.1879 5.13333 86.8013 6.52C85.4146 7.90667 84.7213 9.66667 84.7213 11.8C84.7213 13.9333 85.4146 15.6933 86.8013 17.08ZM118.993 23L114.481 15.224H111.121V23H106.705V0.599998H115.665C117.734 0.599998 119.494 1.32533 120.945 2.776C122.396 4.22667 123.121 5.976 123.121 8.024C123.121 9.41067 122.726 10.7013 121.937 11.896C121.148 13.0693 120.102 13.9547 118.801 14.552L123.761 23H118.993ZM111.121 4.728V11.352H115.665C116.497 11.352 117.212 11.032 117.809 10.392C118.406 9.73067 118.705 8.94133 118.705 8.024C118.705 7.10667 118.406 6.328 117.809 5.688C117.212 5.048 116.497 4.728 115.665 4.728H111.121ZM140.708 0.599998V4.824H134.661V23H130.245V4.824H124.229V0.599998H140.708Z" fill="#D9D9D9"/>
</svg>
