<svg width="28" height="28" viewBox="0 0 28 28" fill="none" xmlns="http://www.w3.org/2000/svg">
<circle cx="14" cy="14" r="14" fill="url(#paint0_linear_302_64)"/>
<path fill-rule="evenodd" clip-rule="evenodd" d="M16.4666 7.89746H11.5334C9.52855 7.89746 7.89746 9.52855 7.89746 11.5334V16.4666C7.89746 18.4715 9.52855 20.1026 11.5334 20.1026H16.4666C18.4715 20.1026 20.1026 18.4715 20.1026 16.4666V11.5334C20.1026 9.52855 18.4715 7.89746 16.4666 7.89746ZM18.8747 16.4663C18.8747 17.7963 17.7965 18.8745 16.4666 18.8745H11.5334C10.2034 18.8745 9.12524 17.7963 9.12524 16.4663V11.5331C9.12524 10.2031 10.2034 9.125 11.5334 9.125H16.4666C17.7965 9.125 18.8747 10.2031 18.8747 11.5331V16.4663ZM10.8434 14.0004C10.8434 12.2598 12.2595 10.8438 14.0001 10.8438C15.7407 10.8438 17.1567 12.2598 17.1567 14.0004C17.1567 15.741 15.7407 17.1571 14.0001 17.1571C12.2595 17.1571 10.8434 15.741 10.8434 14.0004ZM14 15.9288C12.9347 15.9288 12.0712 15.0653 12.0712 14C12.0712 12.9347 12.9348 12.0712 14 12.0712C15.0653 12.0712 15.9289 12.9347 15.9289 14C15.9289 15.0653 15.0653 15.9288 14 15.9288ZM17.1628 11.6232C17.5805 11.6232 17.9192 11.2845 17.9192 10.8668C17.9192 10.449 17.5805 10.1104 17.1628 10.1104C16.745 10.1104 16.4064 10.449 16.4064 10.8668C16.4064 11.2845 16.745 11.6232 17.1628 11.6232Z" fill="white"/>
<defs>
<linearGradient id="paint0_linear_302_64" x1="14" y1="0" x2="14" y2="28" gradientUnits="userSpaceOnUse">
<stop stop-color="#FEAC5E"/>
<stop offset="0.520833" stop-color="#C779D0"/>
<stop offset="1" stop-color="#4BC0C8"/>
</linearGradient>
</defs>
</svg>
