<svg width="24" height="17" viewBox="0 0 24 17" fill="none" xmlns="http://www.w3.org/2000/svg">
<path d="M20.4768 0.012207H3.78114C3.04315 0.012207 2.33538 0.305372 1.81354 0.827212C1.2917 1.34905 0.998535 2.05682 0.998535 2.79482V13.2296C0.998535 13.9676 1.2917 14.6754 1.81354 15.1972C2.33538 15.719 3.04315 16.0122 3.78114 16.0122H20.4768C21.2148 16.0122 21.9226 15.719 22.4444 15.1972C22.9662 14.6754 23.2594 13.9676 23.2594 13.2296V2.79482C23.2594 2.05682 22.9662 1.34905 22.4444 0.827212C21.9226 0.305372 21.2148 0.012207 20.4768 0.012207ZM21.8681 13.2296C21.8681 13.5986 21.7215 13.9525 21.4606 14.2134C21.1997 14.4743 20.8458 14.6209 20.4768 14.6209H3.78114C3.41215 14.6209 3.05826 14.4743 2.79734 14.2134C2.53642 13.9525 2.38984 13.5986 2.38984 13.2296V2.79482C2.38984 2.42582 2.53642 2.07193 2.79734 1.81101C3.05826 1.55009 3.41215 1.40351 3.78114 1.40351H20.4768C20.8458 1.40351 21.1997 1.55009 21.4606 1.81101C21.7215 2.07193 21.8681 2.42582 21.8681 2.79482V13.2296Z" fill="url(#paint0_linear_209_166)"/>
<path d="M20.3167 3.74783C20.2588 3.67688 20.1874 3.61807 20.1067 3.57476C20.0261 3.53145 19.9376 3.50449 19.8465 3.49545C19.7553 3.4864 19.6633 3.49543 19.5757 3.52202C19.4881 3.54862 19.4065 3.59227 19.3358 3.65044L12.1289 9.54957L4.91494 3.65044C4.84556 3.58555 4.76361 3.53556 4.67416 3.50356C4.58471 3.47155 4.48965 3.45821 4.39485 3.46434C4.30005 3.47048 4.20751 3.49597 4.12293 3.53924C4.03836 3.58251 3.96354 3.64265 3.9031 3.71595C3.84266 3.78924 3.79787 3.87414 3.7715 3.96541C3.74512 4.05667 3.73771 4.15238 3.74974 4.24661C3.76176 4.34085 3.79296 4.43162 3.84142 4.51334C3.88987 4.59506 3.95455 4.66598 4.03146 4.72174L11.6836 10.9826C11.8088 11.0863 11.9663 11.1429 12.1289 11.1426C12.289 11.1413 12.4438 11.0848 12.5671 10.9826L20.2193 4.72174C20.3605 4.60497 20.45 4.43718 20.4682 4.25482C20.4865 4.07246 20.432 3.89027 20.3167 3.74783Z" fill="url(#paint1_linear_209_166)"/>
<path d="M17.4852 9.25746C17.3549 9.1279 17.1786 9.05518 16.9948 9.05518C16.811 9.05518 16.6347 9.1279 16.5044 9.25746C16.4392 9.32213 16.3874 9.39907 16.3521 9.48384C16.3168 9.56862 16.2986 9.65955 16.2986 9.75138C16.2986 9.84321 16.3168 9.93413 16.3521 10.0189C16.3874 10.1037 16.4392 10.1806 16.5044 10.2453L19.287 13.0279C19.3518 13.0923 19.4287 13.1433 19.5133 13.178C19.5979 13.2127 19.6885 13.2303 19.7799 13.23C19.8713 13.2297 19.9617 13.2114 20.046 13.1761C20.1304 13.1408 20.2069 13.0893 20.2713 13.0244C20.3357 12.9596 20.3867 12.8826 20.4214 12.7981C20.4561 12.7135 20.4738 12.6229 20.4734 12.5315C20.4731 12.4401 20.4548 12.3497 20.4195 12.2653C20.3842 12.181 20.3327 12.1045 20.2678 12.0401L17.4852 9.25746Z" fill="url(#paint2_linear_209_166)"/>
<path d="M6.7934 9.25746L4.01079 12.0401C3.8798 12.1701 3.80583 12.3469 3.80518 12.5315C3.80453 12.7161 3.87724 12.8934 4.00731 13.0244C4.13738 13.1554 4.31416 13.2294 4.49876 13.23C4.68336 13.2307 4.86067 13.158 4.99166 13.0279L7.77427 10.2453C7.83947 10.1806 7.89122 10.1037 7.92654 10.0189C7.96186 9.93413 7.98004 9.84321 7.98004 9.75138C7.98004 9.65955 7.96186 9.56862 7.92654 9.48384C7.89122 9.39907 7.83947 9.32213 7.77427 9.25746C7.64393 9.1279 7.46761 9.05518 7.28383 9.05518C7.10005 9.05518 6.92374 9.1279 6.7934 9.25746Z" fill="url(#paint3_linear_209_166)"/>
<defs>
<linearGradient id="paint0_linear_209_166" x1="12.129" y1="0.012207" x2="12.129" y2="16.0122" gradientUnits="userSpaceOnUse">
<stop stop-color="#C779D0"/>
<stop offset="1" stop-color="#FEAC5E"/>
</linearGradient>
<linearGradient id="paint1_linear_209_166" x1="12.1079" y1="3.46289" x2="12.1079" y2="11.1426" gradientUnits="userSpaceOnUse">
<stop stop-color="#C779D0"/>
<stop offset="1" stop-color="#FEAC5E"/>
</linearGradient>
<linearGradient id="paint2_linear_209_166" x1="18.386" y1="9.05518" x2="18.386" y2="13.23" gradientUnits="userSpaceOnUse">
<stop stop-color="#C779D0"/>
<stop offset="1" stop-color="#FEAC5E"/>
</linearGradient>
<linearGradient id="paint3_linear_209_166" x1="5.89261" y1="9.05518" x2="5.89261" y2="13.23" gradientUnits="userSpaceOnUse">
<stop stop-color="#C779D0"/>
<stop offset="1" stop-color="#FEAC5E"/>
</linearGradient>
</defs>
</svg>
