<svg width="1440" height="1000" fill="none" xmlns="http://www.w3.org/2000/svg"><g clip-path="url(#a)"><path fill="#0C0E1D" d="M-188 24h1816v976H-188z"/><g opacity=".6" filter="url(#b)"><path d="M870.731 58.08c190.649-112.524 79.438-315.605 0-403.08-130.442 0-396.665 26.438-418.022 132.189-26.697 132.19-314.498 117.863-258.5 255.913 55.997 138.05 229.196 70.327 129.573 258.518-99.624 188.19 461.651 203.168 461.651 94.421S632.416 198.734 870.731 58.079Z" fill="#A855F7"/></g><g opacity=".6" filter="url(#c)"><path d="M263 473.5-202 803v-937l925.5-20-282 230L263 473.5Z" fill="#6366F1"/></g><g style="mix-blend-mode:color" opacity=".6"><g filter="url(#d)"><path d="m635.191 530.622 352.184 205.633 181.755-252.974-22.88-297.193-334.938-12.847-176.121 357.381Z" fill="#22D3EE"/><path d="m635.191 530.622 352.184 205.633 181.755-252.974-22.88-297.193-334.938-12.847-176.121 357.381Z" stroke="#8215B5" stroke-width="100"/></g><g filter="url(#e)"><path d="M194.484 511.499C-19.541 524.203 62.09 200.477 129.658 37.027l-10.964-7.878 317.819-647.141C547.724-597.398 806.618-507.226 952.5-311.291c182.35 244.918-490.485 806.91-758.016 822.79Z" fill="#38BDF8"/><path d="M194.484 511.499C-19.541 524.203 62.09 200.477 129.658 37.027l-10.964-7.878 317.819-647.141C547.724-597.398 806.618-507.226 952.5-311.291c182.35 244.918-490.485 806.91-758.016 822.79Z" stroke="#000"/></g><g filter="url(#f)"><path d="M569.336 1.968C514.057 115.923 765.035 665.9 897.433 926.645L749.024 1059.51c-52.567-103.646-196.227-339.233-350.337-452.422C206.05 465.602 638.434-140.477 569.336 1.968Z" fill="#D946EF"/></g><g filter="url(#g)"><path d="M781.352-281.121c57.036-110.231 381.288 168.263 536.288 321.288-96.66 134.541-305.84 421.05-369.229 490.762-79.233 87.14-167.434-258.827-227.887-382.915C660.071 23.925 905.539 83.313 948.091-2.476c42.553-85.79-238.033-140.857-166.739-278.645Z" fill="#F43F5E"/></g></g></g><g clip-path="url(#h)"><path fill="#0C0E1D" d="M-188-54h1816V975H-188z"/><g opacity=".6" filter="url(#i)"><path d="M870.731-19.92c190.649-112.524 79.438-315.605 0-403.08-130.442 0-396.665 26.438-418.022 132.189-26.697 132.189-314.498 117.863-258.5 255.913 55.997 138.05 229.196 70.327 129.573 258.518-99.624 188.19 461.651 203.168 461.651 94.421S632.416 120.734 870.731-19.921Z" fill="#A855F7"/></g><g opacity=".6" filter="url(#j)"><path d="M263 395.5-202 725v-937l925.5-20-282 230L263 395.5Z" fill="#6366F1"/></g><g style="mix-blend-mode:color" opacity=".8"><g filter="url(#k)"><path d="m635.191 452.622 352.184 205.633 181.755-252.974-22.88-297.193-334.938-12.847-176.121 357.381Z" fill="#22D3EE"/><path d="m635.191 452.622 352.184 205.633 181.755-252.974-22.88-297.193-334.938-12.847-176.121 357.381Z" stroke="#8215B5" stroke-width="100"/></g><g filter="url(#l)"><path d="M194.484 433.499C-19.541 446.203 62.09 122.477 129.658-40.973l-10.964-7.878 317.819-647.141C547.724-675.398 806.618-585.226 952.5-389.291c182.35 244.919-490.485 806.91-758.016 822.79Z" fill="#38BDF8"/><path d="M194.484 433.499C-19.541 446.203 62.09 122.477 129.658-40.973l-10.964-7.878 317.819-647.141C547.724-675.398 806.618-585.226 952.5-389.291c182.35 244.919-490.485 806.91-758.016 822.79Z" stroke="#000"/></g><g filter="url(#m)"><path d="M569.336-76.032C514.057 37.923 765.035 587.9 897.433 848.645L749.024 981.509c-52.567-103.645-196.227-339.232-350.337-452.421C206.05 387.602 638.434-218.477 569.336-76.032Z" fill="#D946EF"/></g><g filter="url(#n)"><path d="M781.352-359.121c57.036-110.231 381.288 168.263 536.288 321.288-96.66 134.54-305.84 421.05-369.229 490.762-79.233 87.14-167.434-258.827-227.887-382.915C660.071-54.075 905.539 5.313 948.091-80.476c42.553-85.79-238.033-140.857-166.739-278.645Z" fill="#F43F5E"/></g></g><g style="mix-blend-mode:color" opacity=".8"><g filter="url(#o)"><path d="m635.191 452.622 352.184 205.633 181.755-252.974-22.88-297.193-334.938-12.847-176.121 357.381Z" fill="#22D3EE"/><path d="m635.191 452.622 352.184 205.633 181.755-252.974-22.88-297.193-334.938-12.847-176.121 357.381Z" stroke="#8215B5" stroke-width="100"/></g><g filter="url(#p)"><path d="M194.484 433.499C-19.541 446.203 62.09 122.477 129.658-40.973l-10.964-7.878 317.819-647.141C547.724-675.398 806.618-585.226 952.5-389.291c182.35 244.919-490.485 806.91-758.016 822.79Z" fill="#38BDF8"/><path d="M194.484 433.499C-19.541 446.203 62.09 122.477 129.658-40.973l-10.964-7.878 317.819-647.141C547.724-675.398 806.618-585.226 952.5-389.291c182.35 244.919-490.485 806.91-758.016 822.79Z" stroke="#000"/></g><g filter="url(#q)"><path d="M569.336-76.032C514.057 37.923 765.035 587.9 897.433 848.645L749.024 981.509c-52.567-103.645-196.227-339.232-350.337-452.421C206.05 387.602 638.434-218.477 569.336-76.032Z" fill="#D946EF"/></g><g filter="url(#r)"><path d="M781.352-359.121c57.036-110.231 381.288 168.263 536.288 321.288-96.66 134.54-305.84 421.05-369.229 490.762-79.233 87.14-167.434-258.827-227.887-382.915C660.071-54.075 905.539 5.313 948.091-80.476c42.553-85.79-238.033-140.857-166.739-278.645Z" fill="#F43F5E"/></g></g></g><defs><filter id="l" x="-244.119" y="-996.553" width="1528.02" height="1730.92" filterUnits="userSpaceOnUse" color-interpolation-filters="sRGB"><feFlood flood-opacity="0" result="BackgroundImageFix"/><feBlend in="SourceGraphic" in2="BackgroundImageFix" result="shape"/><feGaussianBlur stdDeviation="150" result="effect1_foregroundBlur_209_713"/></filter><filter id="b" x="-113" y="-645" width="1389" height="1409" filterUnits="userSpaceOnUse" color-interpolation-filters="sRGB"><feFlood flood-opacity="0" result="BackgroundImageFix"/><feBlend in="SourceGraphic" in2="BackgroundImageFix" result="shape"/><feGaussianBlur stdDeviation="150" result="effect1_foregroundBlur_209_713"/></filter><filter id="d" x="269.747" y="-177.966" width="1250.64" height="1280.33" filterUnits="userSpaceOnUse" color-interpolation-filters="sRGB"><feFlood flood-opacity="0" result="BackgroundImageFix"/><feBlend in="SourceGraphic" in2="BackgroundImageFix" result="shape"/><feGaussianBlur stdDeviation="150" result="effect1_foregroundBlur_209_713"/></filter><filter id="e" x="-244.119" y="-918.553" width="1528.02" height="1730.92" filterUnits="userSpaceOnUse" color-interpolation-filters="sRGB"><feFlood flood-opacity="0" result="BackgroundImageFix"/><feBlend in="SourceGraphic" in2="BackgroundImageFix" result="shape"/><feGaussianBlur stdDeviation="150" result="effect1_foregroundBlur_209_713"/></filter><filter id="f" x="48.815" y="-319.551" width="1148.62" height="1679.06" filterUnits="userSpaceOnUse" color-interpolation-filters="sRGB"><feFlood flood-opacity="0" result="BackgroundImageFix"/><feBlend in="SourceGraphic" in2="BackgroundImageFix" result="shape"/><feGaussianBlur stdDeviation="150" result="effect1_foregroundBlur_209_713"/></filter><filter id="g" x="411.001" y="-606.287" width="1206.64" height="1451.12" filterUnits="userSpaceOnUse" color-interpolation-filters="sRGB"><feFlood flood-opacity="0" result="BackgroundImageFix"/><feBlend in="SourceGraphic" in2="BackgroundImageFix" result="shape"/><feGaussianBlur stdDeviation="150" result="effect1_foregroundBlur_209_713"/></filter><filter id="i" x="-113" y="-723" width="1389" height="1409" filterUnits="userSpaceOnUse" color-interpolation-filters="sRGB"><feFlood flood-opacity="0" result="BackgroundImageFix"/><feBlend in="SourceGraphic" in2="BackgroundImageFix" result="shape"/><feGaussianBlur stdDeviation="150" result="effect1_foregroundBlur_209_713"/></filter><filter id="j" x="-502" y="-532" width="1525.5" height="1557" filterUnits="userSpaceOnUse" color-interpolation-filters="sRGB"><feFlood flood-opacity="0" result="BackgroundImageFix"/><feBlend in="SourceGraphic" in2="BackgroundImageFix" result="shape"/><feGaussianBlur stdDeviation="150" result="effect1_foregroundBlur_209_713"/></filter><filter id="k" x="269.747" y="-255.966" width="1250.64" height="1280.33" filterUnits="userSpaceOnUse" color-interpolation-filters="sRGB"><feFlood flood-opacity="0" result="BackgroundImageFix"/><feBlend in="SourceGraphic" in2="BackgroundImageFix" result="shape"/><feGaussianBlur stdDeviation="150" result="effect1_foregroundBlur_209_713"/></filter><filter id="c" x="-502" y="-454" width="1525.5" height="1557" filterUnits="userSpaceOnUse" color-interpolation-filters="sRGB"><feFlood flood-opacity="0" result="BackgroundImageFix"/><feBlend in="SourceGraphic" in2="BackgroundImageFix" result="shape"/><feGaussianBlur stdDeviation="150" result="effect1_foregroundBlur_209_713"/></filter><filter id="m" x="48.815" y="-397.551" width="1148.62" height="1679.06" filterUnits="userSpaceOnUse" color-interpolation-filters="sRGB"><feFlood flood-opacity="0" result="BackgroundImageFix"/><feBlend in="SourceGraphic" in2="BackgroundImageFix" result="shape"/><feGaussianBlur stdDeviation="150" result="effect1_foregroundBlur_209_713"/></filter><filter id="n" x="411.001" y="-684.287" width="1206.64" height="1451.12" filterUnits="userSpaceOnUse" color-interpolation-filters="sRGB"><feFlood flood-opacity="0" result="BackgroundImageFix"/><feBlend in="SourceGraphic" in2="BackgroundImageFix" result="shape"/><feGaussianBlur stdDeviation="150" result="effect1_foregroundBlur_209_713"/></filter><filter id="o" x="269.747" y="-255.966" width="1250.64" height="1280.33" filterUnits="userSpaceOnUse" color-interpolation-filters="sRGB"><feFlood flood-opacity="0" result="BackgroundImageFix"/><feBlend in="SourceGraphic" in2="BackgroundImageFix" result="shape"/><feGaussianBlur stdDeviation="150" result="effect1_foregroundBlur_209_713"/></filter><filter id="p" x="-244.119" y="-996.553" width="1528.02" height="1730.92" filterUnits="userSpaceOnUse" color-interpolation-filters="sRGB"><feFlood flood-opacity="0" result="BackgroundImageFix"/><feBlend in="SourceGraphic" in2="BackgroundImageFix" result="shape"/><feGaussianBlur stdDeviation="150" result="effect1_foregroundBlur_209_713"/></filter><filter id="q" x="48.815" y="-397.551" width="1148.62" height="1679.06" filterUnits="userSpaceOnUse" color-interpolation-filters="sRGB"><feFlood flood-opacity="0" result="BackgroundImageFix"/><feBlend in="SourceGraphic" in2="BackgroundImageFix" result="shape"/><feGaussianBlur stdDeviation="150" result="effect1_foregroundBlur_209_713"/></filter><filter id="r" x="411.001" y="-684.287" width="1206.64" height="1451.12" filterUnits="userSpaceOnUse" color-interpolation-filters="sRGB"><feFlood flood-opacity="0" result="BackgroundImageFix"/><feBlend in="SourceGraphic" in2="BackgroundImageFix" result="shape"/><feGaussianBlur stdDeviation="150" result="effect1_foregroundBlur_209_713"/></filter><clipPath id="a"><path fill="#fff" transform="translate(-188 24)" d="M0 0h1816v976H0z"/></clipPath><clipPath id="h"><path fill="#fff" transform="translate(-188 -54)" d="M0 0h1816v1029H0z"/></clipPath></defs></svg>