<svg width="1440" height="1000" viewBox="0 0 1440 1000" fill="none" xmlns="http://www.w3.org/2000/svg">
<g clip-path="url(#clip0_209_713)">
<rect width="1816" height="976" transform="translate(-188 24)" fill="#0C0E1D"/>
<g opacity="0.6" filter="url(#filter0_f_209_713)">
<path d="M870.731 58.0793C1061.38 -54.4443 950.169 -257.525 870.731 -345C740.289 -345 474.066 -318.562 452.709 -212.811C426.012 -80.6216 138.211 -94.9476 194.209 43.1022C250.206 181.152 423.405 113.429 323.782 301.62C224.158 489.81 785.433 504.788 785.433 396.041C785.433 287.294 632.416 198.734 870.731 58.0793Z" fill="#A855F7"/>
</g>
<g opacity="0.6" filter="url(#filter1_f_209_713)">
<path d="M263 473.5L-202 803V-134L723.5 -154L441.5 76L263 473.5Z" fill="#6366F1"/>
</g>
<g style="mix-blend-mode:color" opacity="0.6">
<g filter="url(#filter2_f_209_713)">
<path d="M635.191 530.622L987.375 736.255L1169.13 483.281L1146.25 186.088L811.312 173.241L635.191 530.622Z" fill="#22D3EE"/>
<path d="M635.191 530.622L987.375 736.255L1169.13 483.281L1146.25 186.088L811.312 173.241L635.191 530.622Z" stroke="#8215B5" stroke-width="100"/>
</g>
<g filter="url(#filter3_f_209_713)">
<path d="M194.484 511.499C-19.5406 524.203 62.0895 200.477 129.658 37.0266L118.694 29.1493L436.513 -617.992C547.724 -597.398 806.618 -507.226 952.5 -311.291C1134.85 -66.3725 462.015 495.619 194.484 511.499Z" fill="#38BDF8"/>
<path d="M194.484 511.499C-19.5406 524.203 62.0895 200.477 129.658 37.0266L118.694 29.1493L436.513 -617.992C547.724 -597.398 806.618 -507.226 952.5 -311.291C1134.85 -66.3725 462.015 495.619 194.484 511.499Z" stroke="black"/>
</g>
<g filter="url(#filter4_f_209_713)">
<path d="M569.336 1.96782C514.057 115.923 765.035 665.901 897.433 926.645L749.024 1059.51C696.457 955.864 552.797 720.277 398.687 607.088C206.05 465.602 638.434 -140.477 569.336 1.96782Z" fill="#D946EF"/>
</g>
<g filter="url(#filter5_f_209_713)">
<path d="M781.352 -281.121C838.388 -391.352 1162.64 -112.858 1317.64 40.1675C1220.98 174.708 1011.8 461.217 948.411 530.929C869.178 618.069 780.977 272.102 720.524 148.014C660.071 23.9252 905.539 83.3126 948.091 -2.47644C990.644 -88.2655 710.058 -143.333 781.352 -281.121Z" fill="#F43F5E"/>
</g>
</g>
</g>
<g clip-path="url(#clip1_209_713)">
<rect width="1816" height="1029" transform="translate(-188 -54)" fill="#0C0E1D"/>
<g opacity="0.6" filter="url(#filter6_f_209_713)">
<path d="M870.731 -19.9207C1061.38 -132.444 950.169 -335.525 870.731 -423C740.289 -423 474.066 -396.562 452.709 -290.811C426.012 -158.622 138.211 -172.948 194.209 -34.8978C250.206 103.152 423.405 35.4295 323.782 223.62C224.158 411.81 785.433 426.788 785.433 318.041C785.433 209.294 632.416 120.734 870.731 -19.9207Z" fill="#A855F7"/>
</g>
<g opacity="0.6" filter="url(#filter7_f_209_713)">
<path d="M263 395.5L-202 725V-212L723.5 -232L441.5 -2L263 395.5Z" fill="#6366F1"/>
</g>
<g style="mix-blend-mode:color" opacity="0.8">
<g filter="url(#filter8_f_209_713)">
<path d="M635.191 452.622L987.375 658.255L1169.13 405.281L1146.25 108.088L811.312 95.2413L635.191 452.622Z" fill="#22D3EE"/>
<path d="M635.191 452.622L987.375 658.255L1169.13 405.281L1146.25 108.088L811.312 95.2413L635.191 452.622Z" stroke="#8215B5" stroke-width="100"/>
</g>
<g filter="url(#filter9_f_209_713)">
<path d="M194.484 433.499C-19.5406 446.203 62.0895 122.477 129.658 -40.9734L118.694 -48.8507L436.513 -695.992C547.724 -675.398 806.618 -585.226 952.5 -389.291C1134.85 -144.372 462.015 417.619 194.484 433.499Z" fill="#38BDF8"/>
<path d="M194.484 433.499C-19.5406 446.203 62.0895 122.477 129.658 -40.9734L118.694 -48.8507L436.513 -695.992C547.724 -675.398 806.618 -585.226 952.5 -389.291C1134.85 -144.372 462.015 417.619 194.484 433.499Z" stroke="black"/>
</g>
<g filter="url(#filter10_f_209_713)">
<path d="M569.336 -76.0322C514.057 37.9233 765.035 587.901 897.433 848.645L749.024 981.509C696.457 877.864 552.797 642.277 398.687 529.088C206.05 387.602 638.434 -218.477 569.336 -76.0322Z" fill="#D946EF"/>
</g>
<g filter="url(#filter11_f_209_713)">
<path d="M781.352 -359.121C838.388 -469.352 1162.64 -190.858 1317.64 -37.8325C1220.98 96.7078 1011.8 383.217 948.411 452.929C869.178 540.069 780.977 194.102 720.524 70.0136C660.071 -54.0748 905.539 5.31264 948.091 -80.4764C990.644 -166.266 710.058 -221.333 781.352 -359.121Z" fill="#F43F5E"/>
</g>
</g>
<g style="mix-blend-mode:color" opacity="0.8">
<g filter="url(#filter12_f_209_713)">
<path d="M635.191 452.622L987.375 658.255L1169.13 405.281L1146.25 108.088L811.312 95.2413L635.191 452.622Z" fill="#22D3EE"/>
<path d="M635.191 452.622L987.375 658.255L1169.13 405.281L1146.25 108.088L811.312 95.2413L635.191 452.622Z" stroke="#8215B5" stroke-width="100"/>
</g>
<g filter="url(#filter13_f_209_713)">
<path d="M194.484 433.499C-19.5406 446.203 62.0895 122.477 129.658 -40.9734L118.694 -48.8507L436.513 -695.992C547.724 -675.398 806.618 -585.226 952.5 -389.291C1134.85 -144.372 462.015 417.619 194.484 433.499Z" fill="#38BDF8"/>
<path d="M194.484 433.499C-19.5406 446.203 62.0895 122.477 129.658 -40.9734L118.694 -48.8507L436.513 -695.992C547.724 -675.398 806.618 -585.226 952.5 -389.291C1134.85 -144.372 462.015 417.619 194.484 433.499Z" stroke="black"/>
</g>
<g filter="url(#filter14_f_209_713)">
<path d="M569.336 -76.0322C514.057 37.9233 765.035 587.901 897.433 848.645L749.024 981.509C696.457 877.864 552.797 642.277 398.687 529.088C206.05 387.602 638.434 -218.477 569.336 -76.0322Z" fill="#D946EF"/>
</g>
<g filter="url(#filter15_f_209_713)">
<path d="M781.352 -359.121C838.388 -469.352 1162.64 -190.858 1317.64 -37.8325C1220.98 96.7078 1011.8 383.217 948.411 452.929C869.178 540.069 780.977 194.102 720.524 70.0136C660.071 -54.0748 905.539 5.31264 948.091 -80.4764C990.644 -166.266 710.058 -221.333 781.352 -359.121Z" fill="#F43F5E"/>
</g>
</g>
</g>
<defs>
<filter id="filter0_f_209_713" x="-113" y="-645" width="1389" height="1409" filterUnits="userSpaceOnUse" color-interpolation-filters="sRGB">
<feFlood flood-opacity="0" result="BackgroundImageFix"/>
<feBlend mode="normal" in="SourceGraphic" in2="BackgroundImageFix" result="shape"/>
<feGaussianBlur stdDeviation="150" result="effect1_foregroundBlur_209_713"/>
</filter>
<filter id="filter1_f_209_713" x="-502" y="-454" width="1525.5" height="1557" filterUnits="userSpaceOnUse" color-interpolation-filters="sRGB">
<feFlood flood-opacity="0" result="BackgroundImageFix"/>
<feBlend mode="normal" in="SourceGraphic" in2="BackgroundImageFix" result="shape"/>
<feGaussianBlur stdDeviation="150" result="effect1_foregroundBlur_209_713"/>
</filter>
<filter id="filter2_f_209_713" x="269.747" y="-177.966" width="1250.64" height="1280.33" filterUnits="userSpaceOnUse" color-interpolation-filters="sRGB">
<feFlood flood-opacity="0" result="BackgroundImageFix"/>
<feBlend mode="normal" in="SourceGraphic" in2="BackgroundImageFix" result="shape"/>
<feGaussianBlur stdDeviation="150" result="effect1_foregroundBlur_209_713"/>
</filter>
<filter id="filter3_f_209_713" x="-244.119" y="-918.553" width="1528.02" height="1730.92" filterUnits="userSpaceOnUse" color-interpolation-filters="sRGB">
<feFlood flood-opacity="0" result="BackgroundImageFix"/>
<feBlend mode="normal" in="SourceGraphic" in2="BackgroundImageFix" result="shape"/>
<feGaussianBlur stdDeviation="150" result="effect1_foregroundBlur_209_713"/>
</filter>
<filter id="filter4_f_209_713" x="48.8152" y="-319.551" width="1148.62" height="1679.06" filterUnits="userSpaceOnUse" color-interpolation-filters="sRGB">
<feFlood flood-opacity="0" result="BackgroundImageFix"/>
<feBlend mode="normal" in="SourceGraphic" in2="BackgroundImageFix" result="shape"/>
<feGaussianBlur stdDeviation="150" result="effect1_foregroundBlur_209_713"/>
</filter>
<filter id="filter5_f_209_713" x="411.001" y="-606.287" width="1206.64" height="1451.12" filterUnits="userSpaceOnUse" color-interpolation-filters="sRGB">
<feFlood flood-opacity="0" result="BackgroundImageFix"/>
<feBlend mode="normal" in="SourceGraphic" in2="BackgroundImageFix" result="shape"/>
<feGaussianBlur stdDeviation="150" result="effect1_foregroundBlur_209_713"/>
</filter>
<filter id="filter6_f_209_713" x="-113" y="-723" width="1389" height="1409" filterUnits="userSpaceOnUse" color-interpolation-filters="sRGB">
<feFlood flood-opacity="0" result="BackgroundImageFix"/>
<feBlend mode="normal" in="SourceGraphic" in2="BackgroundImageFix" result="shape"/>
<feGaussianBlur stdDeviation="150" result="effect1_foregroundBlur_209_713"/>
</filter>
<filter id="filter7_f_209_713" x="-502" y="-532" width="1525.5" height="1557" filterUnits="userSpaceOnUse" color-interpolation-filters="sRGB">
<feFlood flood-opacity="0" result="BackgroundImageFix"/>
<feBlend mode="normal" in="SourceGraphic" in2="BackgroundImageFix" result="shape"/>
<feGaussianBlur stdDeviation="150" result="effect1_foregroundBlur_209_713"/>
</filter>
<filter id="filter8_f_209_713" x="269.747" y="-255.966" width="1250.64" height="1280.33" filterUnits="userSpaceOnUse" color-interpolation-filters="sRGB">
<feFlood flood-opacity="0" result="BackgroundImageFix"/>
<feBlend mode="normal" in="SourceGraphic" in2="BackgroundImageFix" result="shape"/>
<feGaussianBlur stdDeviation="150" result="effect1_foregroundBlur_209_713"/>
</filter>
<filter id="filter9_f_209_713" x="-244.119" y="-996.553" width="1528.02" height="1730.92" filterUnits="userSpaceOnUse" color-interpolation-filters="sRGB">
<feFlood flood-opacity="0" result="BackgroundImageFix"/>
<feBlend mode="normal" in="SourceGraphic" in2="BackgroundImageFix" result="shape"/>
<feGaussianBlur stdDeviation="150" result="effect1_foregroundBlur_209_713"/>
</filter>
<filter id="filter10_f_209_713" x="48.8152" y="-397.551" width="1148.62" height="1679.06" filterUnits="userSpaceOnUse" color-interpolation-filters="sRGB">
<feFlood flood-opacity="0" result="BackgroundImageFix"/>
<feBlend mode="normal" in="SourceGraphic" in2="BackgroundImageFix" result="shape"/>
<feGaussianBlur stdDeviation="150" result="effect1_foregroundBlur_209_713"/>
</filter>
<filter id="filter11_f_209_713" x="411.001" y="-684.287" width="1206.64" height="1451.12" filterUnits="userSpaceOnUse" color-interpolation-filters="sRGB">
<feFlood flood-opacity="0" result="BackgroundImageFix"/>
<feBlend mode="normal" in="SourceGraphic" in2="BackgroundImageFix" result="shape"/>
<feGaussianBlur stdDeviation="150" result="effect1_foregroundBlur_209_713"/>
</filter>
<filter id="filter12_f_209_713" x="269.747" y="-255.966" width="1250.64" height="1280.33" filterUnits="userSpaceOnUse" color-interpolation-filters="sRGB">
<feFlood flood-opacity="0" result="BackgroundImageFix"/>
<feBlend mode="normal" in="SourceGraphic" in2="BackgroundImageFix" result="shape"/>
<feGaussianBlur stdDeviation="150" result="effect1_foregroundBlur_209_713"/>
</filter>
<filter id="filter13_f_209_713" x="-244.119" y="-996.553" width="1528.02" height="1730.92" filterUnits="userSpaceOnUse" color-interpolation-filters="sRGB">
<feFlood flood-opacity="0" result="BackgroundImageFix"/>
<feBlend mode="normal" in="SourceGraphic" in2="BackgroundImageFix" result="shape"/>
<feGaussianBlur stdDeviation="150" result="effect1_foregroundBlur_209_713"/>
</filter>
<filter id="filter14_f_209_713" x="48.8152" y="-397.551" width="1148.62" height="1679.06" filterUnits="userSpaceOnUse" color-interpolation-filters="sRGB">
<feFlood flood-opacity="0" result="BackgroundImageFix"/>
<feBlend mode="normal" in="SourceGraphic" in2="BackgroundImageFix" result="shape"/>
<feGaussianBlur stdDeviation="150" result="effect1_foregroundBlur_209_713"/>
</filter>
<filter id="filter15_f_209_713" x="411.001" y="-684.287" width="1206.64" height="1451.12" filterUnits="userSpaceOnUse" color-interpolation-filters="sRGB">
<feFlood flood-opacity="0" result="BackgroundImageFix"/>
<feBlend mode="normal" in="SourceGraphic" in2="BackgroundImageFix" result="shape"/>
<feGaussianBlur stdDeviation="150" result="effect1_foregroundBlur_209_713"/>
</filter>
<clipPath id="clip0_209_713">
<rect width="1816" height="976" fill="white" transform="translate(-188 24)"/>
</clipPath>
<clipPath id="clip1_209_713">
<rect width="1816" height="1029" fill="white" transform="translate(-188 -54)"/>
</clipPath>
</defs>
</svg>
