<svg width="21" height="25" viewBox="0 0 21 25" fill="none" xmlns="http://www.w3.org/2000/svg">
<path d="M10.6371 0.012207C8.08079 0.012207 5.62918 1.02769 3.8216 2.83527C2.01402 4.64285 0.998535 7.09446 0.998535 9.65076C0.998535 14.2328 5.9661 19.7342 10.1403 23.5451L10.6519 24.0122L11.1487 23.5303C15.7678 19.0817 20.2756 14.3588 20.2756 9.65076C20.2756 7.09446 19.2602 4.64285 17.4526 2.83527C15.645 1.02769 13.1934 0.012207 10.6371 0.012207ZM10.6371 21.9733C5.38037 17.065 2.48139 12.7054 2.48139 9.65076C2.48139 7.48774 3.34065 5.4133 4.87014 3.88381C6.39963 2.35431 8.47406 1.49506 10.6371 1.49506C12.8001 1.49506 14.8746 2.35431 16.404 3.88381C17.9335 5.4133 18.7928 7.48774 18.7928 9.65076C18.7928 13.6174 14.8336 17.8732 10.6371 21.9733Z" fill="url(#paint0_linear_209_161)"/>
<path d="M10.6373 5.94385C9.90411 5.94385 9.18737 6.16127 8.57774 6.56861C7.9681 6.97596 7.49295 7.55493 7.21236 8.23232C6.93178 8.90971 6.85837 9.65509 7.00141 10.3742C7.14445 11.0933 7.49752 11.7539 8.01597 12.2723C8.53442 12.7908 9.19497 13.1438 9.91409 13.2869C10.6332 13.4299 11.3786 13.3565 12.056 13.0759C12.7334 12.7953 13.3123 12.3202 13.7197 11.7106C14.127 11.1009 14.3444 10.3842 14.3444 9.65098C14.3444 8.66779 13.9539 7.72486 13.2587 7.02964C12.5634 6.33442 11.6205 5.94385 10.6373 5.94385ZM10.6373 11.8753C10.1974 11.8753 9.76735 11.7448 9.40157 11.5004C9.03579 11.256 8.7507 10.9086 8.58235 10.5022C8.41399 10.0957 8.36995 9.64851 8.45577 9.21704C8.5416 8.78557 8.75343 8.38925 9.06451 8.07818C9.37558 7.76711 9.77191 7.55527 10.2034 7.46944C10.6348 7.38362 11.0821 7.42767 11.4885 7.59602C11.8949 7.76437 12.2423 8.04945 12.4867 8.41523C12.7311 8.78102 12.8616 9.21106 12.8616 9.65098C12.8616 10.2409 12.6273 10.8067 12.2101 11.2238C11.793 11.6409 11.2272 11.8753 10.6373 11.8753Z" fill="url(#paint1_linear_209_161)"/>
<defs>
<linearGradient id="paint0_linear_209_161" x1="10.6371" y1="0.012207" x2="10.6371" y2="24.0122" gradientUnits="userSpaceOnUse">
<stop stop-color="#C779D0"/>
<stop offset="1" stop-color="#FEAC5E"/>
</linearGradient>
<linearGradient id="paint1_linear_209_161" x1="10.6373" y1="5.94385" x2="10.6373" y2="13.3581" gradientUnits="userSpaceOnUse">
<stop stop-color="#C779D0"/>
<stop offset="1" stop-color="#FEAC5E"/>
</linearGradient>
</defs>
</svg>
