<svg width="1440" height="9015" viewBox="0 0 1440 9015" fill="none" xmlns="http://www.w3.org/2000/svg">
<g clip-path="url(#clip0_209_97)">
<rect width="1440" height="9015" fill="#0C0E1D"/>
<g opacity="0.8" clip-path="url(#clip1_209_97)">
<rect width="1540" height="960" transform="translate(-274 8364)" fill="#0C0E1D"/>
<g filter="url(#filter0_f_209_97)">
<path d="M784.731 8538.08C975.383 8425.56 864.169 8222.47 784.731 8135C654.289 8135 388.066 8161.44 366.709 8267.19C340.012 8399.38 52.211 8385.05 108.209 8523.1C164.206 8661.15 337.405 8593.43 237.782 8781.62C138.158 8969.81 699.433 8984.79 699.433 8876.04C699.433 8767.29 546.416 8678.73 784.731 8538.08Z" fill="#A855F7"/>
</g>
<g style="mix-blend-mode:color">
<g filter="url(#filter1_f_209_97)">
<path d="M549.191 9010.62L901.375 9216.26L1083.13 8963.28L1060.25 8666.09L725.312 8653.24L549.191 9010.62Z" fill="#22D3EE"/>
<path d="M549.191 9010.62L901.375 9216.26L1083.13 8963.28L1060.25 8666.09L725.312 8653.24L549.191 9010.62Z" stroke="#8215B5" stroke-width="100"/>
</g>
<g filter="url(#filter2_f_209_97)">
<path d="M108.484 8991.5C-105.541 9004.2 -23.9105 8680.48 43.6576 8517.03L32.694 8509.15L350.513 7862.01C461.724 7882.6 720.618 7972.77 866.5 8168.71C1048.85 8413.63 376.015 8975.62 108.484 8991.5Z" fill="#38BDF8"/>
<path d="M108.484 8991.5C-105.541 9004.2 -23.9105 8680.48 43.6576 8517.03L32.694 8509.15L350.513 7862.01C461.724 7882.6 720.618 7972.77 866.5 8168.71C1048.85 8413.63 376.015 8975.62 108.484 8991.5Z" stroke="black"/>
</g>
<g filter="url(#filter3_f_209_97)">
<path d="M483.336 8481.97C428.057 8595.92 679.035 9145.9 811.433 9406.64L663.024 9539.51C610.457 9435.86 466.797 9200.28 312.687 9087.09C120.05 8945.6 552.434 8339.52 483.336 8481.97Z" fill="#D946EF"/>
</g>
<g filter="url(#filter4_f_209_97)">
<path d="M695.352 8198.88C752.388 8088.65 1076.64 8367.14 1231.64 8520.17C1134.98 8654.71 925.797 8941.22 862.411 9010.93C783.178 9098.07 694.977 8752.1 634.524 8628.01C574.071 8503.92 819.539 8563.31 862.091 8477.52C904.644 8391.73 624.058 8336.67 695.352 8198.88Z" fill="#F43F5E"/>
</g>
</g>
</g>
<g opacity="0.4" clip-path="url(#clip2_209_97)">
<rect width="1636" height="1020" transform="translate(-190 5832)" fill="#0C0E1D"/>
<g filter="url(#filter5_f_209_97)">
<path d="M851.731 6197.08C1042.38 6084.56 931.169 5881.47 851.731 5794C721.289 5794 455.066 5820.44 433.709 5926.19C407.012 6058.38 119.211 6044.05 175.209 6182.1C231.206 6320.15 404.405 6252.43 304.782 6440.62C205.158 6628.81 766.433 6643.79 766.433 6535.04C766.433 6426.29 613.416 6337.73 851.731 6197.08Z" fill="#A855F7"/>
</g>
<g style="mix-blend-mode:color">
<g filter="url(#filter6_f_209_97)">
<path d="M597.19 6542.62L949.373 6748.26L1131.13 6495.28L1108.24 6198.09L773.311 6185.24L597.19 6542.62Z" fill="#22D3EE"/>
<path d="M597.19 6542.62L949.373 6748.26L1131.13 6495.28L1108.24 6198.09L773.311 6185.24L597.19 6542.62Z" stroke="#8215B5" stroke-width="100"/>
</g>
<g filter="url(#filter7_f_209_97)">
<path d="M357.966 6336.5C143.941 6349.2 225.571 6025.48 293.139 5862.03L282.175 5854.15L599.994 5207.01C711.206 5227.6 970.1 5317.77 1115.98 5513.71C1298.33 5758.63 625.497 6320.62 357.966 6336.5Z" fill="url(#paint0_linear_209_97)"/>
<path d="M357.966 6336.5C143.941 6349.2 225.571 6025.48 293.139 5862.03L282.175 5854.15L599.994 5207.01C711.206 5227.6 970.1 5317.77 1115.98 5513.71C1298.33 5758.63 625.497 6320.62 357.966 6336.5Z" stroke="black"/>
</g>
<g filter="url(#filter8_f_209_97)">
<path d="M527.285 5852.15C472.007 5966.11 722.985 6516.09 855.383 6776.83L706.974 6909.7C654.407 6806.05 510.747 6570.46 356.637 6457.27C164 6315.79 596.384 5709.71 527.285 5852.15Z" fill="#1D4ED8"/>
</g>
<g filter="url(#filter9_f_209_97)">
<path d="M555.459 6391.25C612.495 6281.02 936.75 6559.51 1091.75 6712.54C995.083 6847.08 785.904 7133.59 722.518 7203.3C643.285 7290.44 555.084 6944.47 494.631 6820.39C434.178 6696.3 679.646 6755.69 722.198 6669.9C764.751 6584.11 484.165 6529.04 555.459 6391.25Z" fill="url(#paint1_linear_209_97)"/>
</g>
</g>
</g>
<g opacity="0.4" clip-path="url(#clip3_209_97)">
<rect width="1636" height="1020" transform="translate(1956 4079) rotate(90)" fill="#0C0E1D"/>
<g filter="url(#filter10_f_209_97)">
<path d="M1590.92 5120.73C1703.44 5311.38 1906.53 5200.17 1994 5120.73C1994 4990.29 1967.56 4724.07 1861.81 4702.71C1729.62 4676.01 1743.95 4388.21 1605.9 4444.21C1467.85 4500.21 1535.57 4673.41 1347.38 4573.78C1159.19 4474.16 1144.21 5035.43 1252.96 5035.43C1361.71 5035.43 1450.27 4882.42 1590.92 5120.73Z" fill="#A855F7"/>
</g>
<g style="mix-blend-mode:color">
<g filter="url(#filter11_f_209_97)">
<path d="M1305.38 4866.19L1099.75 5218.37L1352.72 5400.13L1649.91 5377.24L1662.76 5042.31L1305.38 4866.19Z" fill="#22D3EE"/>
<path d="M1305.38 4866.19L1099.75 5218.37L1352.72 5400.13L1649.91 5377.24L1662.76 5042.31L1305.38 4866.19Z" stroke="#8215B5" stroke-width="100"/>
</g>
<g filter="url(#filter12_f_209_97)">
<path d="M1511.5 4626.97C1498.8 4412.94 1822.52 4494.57 1985.97 4562.14L1993.85 4551.18L2640.99 4868.99C2620.4 4980.21 2530.23 5239.1 2334.29 5384.98C2089.37 5567.33 1527.38 4894.5 1511.5 4626.97Z" fill="url(#paint2_linear_209_97)"/>
<path d="M1511.5 4626.97C1498.8 4412.94 1822.52 4494.57 1985.97 4562.14L1993.85 4551.18L2640.99 4868.99C2620.4 4980.21 2530.23 5239.1 2334.29 5384.98C2089.37 5567.33 1527.38 4894.5 1511.5 4626.97Z" stroke="black"/>
</g>
<g filter="url(#filter13_f_209_97)">
<path d="M1995.85 4796.29C1881.89 4741.01 1331.91 4991.98 1071.17 5124.38L938.305 4975.97C1041.95 4923.41 1277.54 4779.75 1390.73 4625.64C1532.21 4433 2138.29 4865.38 1995.85 4796.29Z" fill="#1D4ED8"/>
</g>
<g filter="url(#filter14_f_209_97)">
<path d="M1456.75 4824.46C1566.98 4881.49 1288.49 5205.75 1135.46 5360.75C1000.92 5264.08 714.411 5054.9 644.699 4991.52C557.558 4912.28 903.525 4824.08 1027.61 4763.63C1151.7 4703.18 1092.31 4948.65 1178.1 4991.2C1263.89 5033.75 1318.96 4753.16 1456.75 4824.46Z" fill="url(#paint3_linear_209_97)"/>
</g>
</g>
</g>
<g opacity="0.8" clip-path="url(#clip4_209_97)">
<rect width="1594" height="994" transform="translate(-16 1754)" fill="#0C0E1D"/>
<g filter="url(#filter15_f_209_97)">
<path d="M396.076 2418.37L435.768 2844.5L-173.613 2492.68L160.888 1883.27L204.584 2153.03L396.076 2418.37Z" fill="#3730A3"/>
</g>
<g style="mix-blend-mode:color">
<g filter="url(#filter16_f_209_97)">
<path d="M771.19 2464.62L1123.37 2670.25L1305.13 2417.28L1282.24 2120.09L947.311 2107.24L771.19 2464.62Z" fill="#22D3EE"/>
<path d="M771.19 2464.62L1123.37 2670.25L1305.13 2417.28L1282.24 2120.09L947.311 2107.24L771.19 2464.62Z" stroke="#8215B5" stroke-width="100"/>
</g>
<g filter="url(#filter17_f_209_97)">
<path d="M531.966 2258.5C317.941 2271.2 399.571 1947.48 467.139 1784.03L456.175 1776.15L773.994 1129.01C885.206 1149.6 1144.1 1239.77 1289.98 1435.71C1472.33 1680.63 799.497 2242.62 531.966 2258.5Z" fill="url(#paint4_linear_209_97)"/>
<path d="M531.966 2258.5C317.941 2271.2 399.571 1947.48 467.139 1784.03L456.175 1776.15L773.994 1129.01C885.206 1149.6 1144.1 1239.77 1289.98 1435.71C1472.33 1680.63 799.497 2242.62 531.966 2258.5Z" stroke="black"/>
</g>
<g filter="url(#filter18_f_209_97)">
<path d="M701.285 1774.15C646.007 1888.11 896.985 2438.09 1029.38 2698.83L880.974 2831.69C828.407 2728.05 684.747 2492.46 530.637 2379.27C338 2237.79 770.384 1631.71 701.285 1774.15Z" fill="#1D4ED8"/>
</g>
<g filter="url(#filter19_f_209_97)">
<path d="M729.459 2313.25C786.495 2203.02 1110.75 2481.51 1265.75 2634.54C1169.08 2769.08 959.904 3055.59 896.518 3125.3C817.285 3212.44 729.084 2866.47 668.631 2742.39C608.178 2618.3 853.646 2677.69 896.198 2591.9C938.751 2506.11 658.165 2451.04 729.459 2313.25Z" fill="url(#paint5_linear_209_97)"/>
</g>
</g>
</g>
<g opacity="0.8" clip-path="url(#clip5_209_97)">
<rect width="1594" height="994" transform="translate(-16 1754)" fill="#0C0E1D"/>
<g opacity="0.6" filter="url(#filter20_f_209_97)">
<path d="M396.076 2418.37L435.768 2844.5L-173.613 2492.68L160.888 1883.27L204.584 2153.03L396.076 2418.37Z" fill="#3730A3"/>
</g>
<g style="mix-blend-mode:color">
<g filter="url(#filter21_f_209_97)">
<path d="M771.19 2464.62L1123.37 2670.25L1305.13 2417.28L1282.24 2120.09L947.311 2107.24L771.19 2464.62Z" fill="#22D3EE"/>
<path d="M771.19 2464.62L1123.37 2670.25L1305.13 2417.28L1282.24 2120.09L947.311 2107.24L771.19 2464.62Z" stroke="#8215B5" stroke-width="100"/>
</g>
<g filter="url(#filter22_f_209_97)">
<path d="M531.966 2258.5C317.941 2271.2 399.571 1947.48 467.139 1784.03L456.175 1776.15L773.994 1129.01C885.206 1149.6 1144.1 1239.77 1289.98 1435.71C1472.33 1680.63 799.497 2242.62 531.966 2258.5Z" fill="url(#paint6_linear_209_97)"/>
<path d="M531.966 2258.5C317.941 2271.2 399.571 1947.48 467.139 1784.03L456.175 1776.15L773.994 1129.01C885.206 1149.6 1144.1 1239.77 1289.98 1435.71C1472.33 1680.63 799.497 2242.62 531.966 2258.5Z" stroke="black"/>
</g>
<g filter="url(#filter23_f_209_97)">
<path d="M701.285 1774.15C646.007 1888.11 896.985 2438.09 1029.38 2698.83L880.974 2831.69C828.407 2728.05 684.747 2492.46 530.637 2379.27C338 2237.79 770.384 1631.71 701.285 1774.15Z" fill="#1D4ED8"/>
</g>
<g filter="url(#filter24_f_209_97)">
<path d="M729.459 2313.25C786.495 2203.02 1110.75 2481.51 1265.75 2634.54C1169.08 2769.08 959.904 3055.59 896.518 3125.3C817.285 3212.44 729.084 2866.47 668.631 2742.39C608.178 2618.3 853.646 2677.69 896.198 2591.9C938.751 2506.11 658.165 2451.04 729.459 2313.25Z" fill="url(#paint7_linear_209_97)"/>
</g>
</g>
</g>
<g clip-path="url(#clip6_209_97)">
<rect width="1816" height="976" transform="translate(-188 24)" fill="#0C0E1D"/>
<g opacity="0.6" filter="url(#filter25_f_209_97)">
<path d="M870.731 58.0793C1061.38 -54.4443 950.169 -257.525 870.731 -345C740.289 -345 474.066 -318.562 452.709 -212.811C426.012 -80.6216 138.211 -94.9476 194.209 43.1022C250.206 181.152 423.405 113.429 323.782 301.62C224.158 489.81 785.433 504.788 785.433 396.041C785.433 287.294 632.416 198.734 870.731 58.0793Z" fill="#A855F7"/>
</g>
<g opacity="0.6" filter="url(#filter26_f_209_97)">
<path d="M263 473.5L-202 803V-134L723.5 -154L441.5 76L263 473.5Z" fill="#6366F1"/>
</g>
<g style="mix-blend-mode:color" opacity="0.6">
<g filter="url(#filter27_f_209_97)">
<path d="M635.191 530.622L987.375 736.255L1169.13 483.281L1146.25 186.088L811.312 173.241L635.191 530.622Z" fill="#22D3EE"/>
<path d="M635.191 530.622L987.375 736.255L1169.13 483.281L1146.25 186.088L811.312 173.241L635.191 530.622Z" stroke="#8215B5" stroke-width="100"/>
</g>
<g filter="url(#filter28_f_209_97)">
<path d="M194.484 511.499C-19.5406 524.203 62.0895 200.477 129.658 37.0266L118.694 29.1493L436.513 -617.992C547.724 -597.398 806.618 -507.226 952.5 -311.291C1134.85 -66.3725 462.015 495.619 194.484 511.499Z" fill="#38BDF8"/>
<path d="M194.484 511.499C-19.5406 524.203 62.0895 200.477 129.658 37.0266L118.694 29.1493L436.513 -617.992C547.724 -597.398 806.618 -507.226 952.5 -311.291C1134.85 -66.3725 462.015 495.619 194.484 511.499Z" stroke="black"/>
</g>
<g filter="url(#filter29_f_209_97)">
<path d="M569.336 1.96782C514.057 115.923 765.035 665.901 897.433 926.645L749.024 1059.51C696.457 955.864 552.797 720.277 398.687 607.088C206.05 465.602 638.434 -140.477 569.336 1.96782Z" fill="#D946EF"/>
</g>
<g filter="url(#filter30_f_209_97)">
<path d="M781.352 -281.121C838.388 -391.352 1162.64 -112.858 1317.64 40.1675C1220.98 174.708 1011.8 461.217 948.411 530.929C869.178 618.069 780.977 272.102 720.524 148.014C660.071 23.9252 905.539 83.3126 948.091 -2.47644C990.644 -88.2655 710.058 -143.333 781.352 -281.121Z" fill="#F43F5E"/>
</g>
</g>
</g>
<g clip-path="url(#clip7_209_97)">
<rect width="1816" height="1029" transform="translate(-188 -54)" fill="#0C0E1D"/>
<g opacity="0.6" filter="url(#filter31_f_209_97)">
<path d="M870.731 -19.9207C1061.38 -132.444 950.169 -335.525 870.731 -423C740.289 -423 474.066 -396.562 452.709 -290.811C426.012 -158.622 138.211 -172.948 194.209 -34.8978C250.206 103.152 423.405 35.4295 323.782 223.62C224.158 411.81 785.433 426.788 785.433 318.041C785.433 209.294 632.416 120.734 870.731 -19.9207Z" fill="#A855F7"/>
</g>
<g opacity="0.6" filter="url(#filter32_f_209_97)">
<path d="M263 395.5L-202 725V-212L723.5 -232L441.5 -2L263 395.5Z" fill="#6366F1"/>
</g>
<g style="mix-blend-mode:color" opacity="0.8">
<g filter="url(#filter33_f_209_97)">
<path d="M635.191 452.622L987.375 658.255L1169.13 405.281L1146.25 108.088L811.312 95.2413L635.191 452.622Z" fill="#22D3EE"/>
<path d="M635.191 452.622L987.375 658.255L1169.13 405.281L1146.25 108.088L811.312 95.2413L635.191 452.622Z" stroke="#8215B5" stroke-width="100"/>
</g>
<g filter="url(#filter34_f_209_97)">
<path d="M194.484 433.499C-19.5406 446.203 62.0895 122.477 129.658 -40.9734L118.694 -48.8507L436.513 -695.992C547.724 -675.398 806.618 -585.226 952.5 -389.291C1134.85 -144.372 462.015 417.619 194.484 433.499Z" fill="#38BDF8"/>
<path d="M194.484 433.499C-19.5406 446.203 62.0895 122.477 129.658 -40.9734L118.694 -48.8507L436.513 -695.992C547.724 -675.398 806.618 -585.226 952.5 -389.291C1134.85 -144.372 462.015 417.619 194.484 433.499Z" stroke="black"/>
</g>
<g filter="url(#filter35_f_209_97)">
<path d="M569.336 -76.0322C514.057 37.9233 765.035 587.901 897.433 848.645L749.024 981.509C696.457 877.864 552.797 642.277 398.687 529.088C206.05 387.602 638.434 -218.477 569.336 -76.0322Z" fill="#D946EF"/>
</g>
<g filter="url(#filter36_f_209_97)">
<path d="M781.352 -359.121C838.388 -469.352 1162.64 -190.858 1317.64 -37.8325C1220.98 96.7078 1011.8 383.217 948.411 452.929C869.178 540.069 780.977 194.102 720.524 70.0136C660.071 -54.0748 905.539 5.31264 948.091 -80.4764C990.644 -166.266 710.058 -221.333 781.352 -359.121Z" fill="#F43F5E"/>
</g>
</g>
<g style="mix-blend-mode:color" opacity="0.8">
<g filter="url(#filter37_f_209_97)">
<path d="M635.191 452.622L987.375 658.255L1169.13 405.281L1146.25 108.088L811.312 95.2413L635.191 452.622Z" fill="#22D3EE"/>
<path d="M635.191 452.622L987.375 658.255L1169.13 405.281L1146.25 108.088L811.312 95.2413L635.191 452.622Z" stroke="#8215B5" stroke-width="100"/>
</g>
<g filter="url(#filter38_f_209_97)">
<path d="M194.484 433.499C-19.5406 446.203 62.0895 122.477 129.658 -40.9734L118.694 -48.8507L436.513 -695.992C547.724 -675.398 806.618 -585.226 952.5 -389.291C1134.85 -144.372 462.015 417.619 194.484 433.499Z" fill="#38BDF8"/>
<path d="M194.484 433.499C-19.5406 446.203 62.0895 122.477 129.658 -40.9734L118.694 -48.8507L436.513 -695.992C547.724 -675.398 806.618 -585.226 952.5 -389.291C1134.85 -144.372 462.015 417.619 194.484 433.499Z" stroke="black"/>
</g>
<g filter="url(#filter39_f_209_97)">
<path d="M569.336 -76.0322C514.057 37.9233 765.035 587.901 897.433 848.645L749.024 981.509C696.457 877.864 552.797 642.277 398.687 529.088C206.05 387.602 638.434 -218.477 569.336 -76.0322Z" fill="#D946EF"/>
</g>
<g filter="url(#filter40_f_209_97)">
<path d="M781.352 -359.121C838.388 -469.352 1162.64 -190.858 1317.64 -37.8325C1220.98 96.7078 1011.8 383.217 948.411 452.929C869.178 540.069 780.977 194.102 720.524 70.0136C660.071 -54.0748 905.539 5.31264 948.091 -80.4764C990.644 -166.266 710.058 -221.333 781.352 -359.121Z" fill="#F43F5E"/>
</g>
</g>
</g>
</g>
<defs>
<filter id="filter0_f_209_97" x="-199" y="7835" width="1389" height="1409" filterUnits="userSpaceOnUse" color-interpolation-filters="sRGB">
<feFlood flood-opacity="0" result="BackgroundImageFix"/>
<feBlend mode="normal" in="SourceGraphic" in2="BackgroundImageFix" result="shape"/>
<feGaussianBlur stdDeviation="150" result="effect1_foregroundBlur_209_97"/>
</filter>
<filter id="filter1_f_209_97" x="183.747" y="8302.03" width="1250.64" height="1280.33" filterUnits="userSpaceOnUse" color-interpolation-filters="sRGB">
<feFlood flood-opacity="0" result="BackgroundImageFix"/>
<feBlend mode="normal" in="SourceGraphic" in2="BackgroundImageFix" result="shape"/>
<feGaussianBlur stdDeviation="150" result="effect1_foregroundBlur_209_97"/>
</filter>
<filter id="filter2_f_209_97" x="-330.119" y="7561.45" width="1528.02" height="1730.92" filterUnits="userSpaceOnUse" color-interpolation-filters="sRGB">
<feFlood flood-opacity="0" result="BackgroundImageFix"/>
<feBlend mode="normal" in="SourceGraphic" in2="BackgroundImageFix" result="shape"/>
<feGaussianBlur stdDeviation="150" result="effect1_foregroundBlur_209_97"/>
</filter>
<filter id="filter3_f_209_97" x="-37.1848" y="8160.45" width="1148.62" height="1679.06" filterUnits="userSpaceOnUse" color-interpolation-filters="sRGB">
<feFlood flood-opacity="0" result="BackgroundImageFix"/>
<feBlend mode="normal" in="SourceGraphic" in2="BackgroundImageFix" result="shape"/>
<feGaussianBlur stdDeviation="150" result="effect1_foregroundBlur_209_97"/>
</filter>
<filter id="filter4_f_209_97" x="325.001" y="7873.71" width="1206.64" height="1451.12" filterUnits="userSpaceOnUse" color-interpolation-filters="sRGB">
<feFlood flood-opacity="0" result="BackgroundImageFix"/>
<feBlend mode="normal" in="SourceGraphic" in2="BackgroundImageFix" result="shape"/>
<feGaussianBlur stdDeviation="150" result="effect1_foregroundBlur_209_97"/>
</filter>
<filter id="filter5_f_209_97" x="-132" y="5494" width="1389" height="1409" filterUnits="userSpaceOnUse" color-interpolation-filters="sRGB">
<feFlood flood-opacity="0" result="BackgroundImageFix"/>
<feBlend mode="normal" in="SourceGraphic" in2="BackgroundImageFix" result="shape"/>
<feGaussianBlur stdDeviation="150" result="effect1_foregroundBlur_209_97"/>
</filter>
<filter id="filter6_f_209_97" x="231.746" y="5834.03" width="1250.64" height="1280.33" filterUnits="userSpaceOnUse" color-interpolation-filters="sRGB">
<feFlood flood-opacity="0" result="BackgroundImageFix"/>
<feBlend mode="normal" in="SourceGraphic" in2="BackgroundImageFix" result="shape"/>
<feGaussianBlur stdDeviation="150" result="effect1_foregroundBlur_209_97"/>
</filter>
<filter id="filter7_f_209_97" x="-80.6379" y="4906.45" width="1528.02" height="1730.92" filterUnits="userSpaceOnUse" color-interpolation-filters="sRGB">
<feFlood flood-opacity="0" result="BackgroundImageFix"/>
<feBlend mode="normal" in="SourceGraphic" in2="BackgroundImageFix" result="shape"/>
<feGaussianBlur stdDeviation="150" result="effect1_foregroundBlur_209_97"/>
</filter>
<filter id="filter8_f_209_97" x="6.76514" y="5530.63" width="1148.62" height="1679.06" filterUnits="userSpaceOnUse" color-interpolation-filters="sRGB">
<feFlood flood-opacity="0" result="BackgroundImageFix"/>
<feBlend mode="normal" in="SourceGraphic" in2="BackgroundImageFix" result="shape"/>
<feGaussianBlur stdDeviation="150" result="effect1_foregroundBlur_209_97"/>
</filter>
<filter id="filter9_f_209_97" x="185.108" y="6066.09" width="1206.64" height="1451.12" filterUnits="userSpaceOnUse" color-interpolation-filters="sRGB">
<feFlood flood-opacity="0" result="BackgroundImageFix"/>
<feBlend mode="normal" in="SourceGraphic" in2="BackgroundImageFix" result="shape"/>
<feGaussianBlur stdDeviation="150" result="effect1_foregroundBlur_209_97"/>
</filter>
<filter id="filter10_f_209_97" x="885" y="4137" width="1409" height="1389" filterUnits="userSpaceOnUse" color-interpolation-filters="sRGB">
<feFlood flood-opacity="0" result="BackgroundImageFix"/>
<feBlend mode="normal" in="SourceGraphic" in2="BackgroundImageFix" result="shape"/>
<feGaussianBlur stdDeviation="150" result="effect1_foregroundBlur_209_97"/>
</filter>
<filter id="filter11_f_209_97" x="733.633" y="4500.75" width="1280.33" height="1250.64" filterUnits="userSpaceOnUse" color-interpolation-filters="sRGB">
<feFlood flood-opacity="0" result="BackgroundImageFix"/>
<feBlend mode="normal" in="SourceGraphic" in2="BackgroundImageFix" result="shape"/>
<feGaussianBlur stdDeviation="150" result="effect1_foregroundBlur_209_97"/>
</filter>
<filter id="filter12_f_209_97" x="1210.64" y="4188.36" width="1730.92" height="1528.02" filterUnits="userSpaceOnUse" color-interpolation-filters="sRGB">
<feFlood flood-opacity="0" result="BackgroundImageFix"/>
<feBlend mode="normal" in="SourceGraphic" in2="BackgroundImageFix" result="shape"/>
<feGaussianBlur stdDeviation="150" result="effect1_foregroundBlur_209_97"/>
</filter>
<filter id="filter13_f_209_97" x="638.305" y="4275.77" width="1679.06" height="1148.62" filterUnits="userSpaceOnUse" color-interpolation-filters="sRGB">
<feFlood flood-opacity="0" result="BackgroundImageFix"/>
<feBlend mode="normal" in="SourceGraphic" in2="BackgroundImageFix" result="shape"/>
<feGaussianBlur stdDeviation="150" result="effect1_foregroundBlur_209_97"/>
</filter>
<filter id="filter14_f_209_97" x="330.792" y="4454.11" width="1451.12" height="1206.64" filterUnits="userSpaceOnUse" color-interpolation-filters="sRGB">
<feFlood flood-opacity="0" result="BackgroundImageFix"/>
<feBlend mode="normal" in="SourceGraphic" in2="BackgroundImageFix" result="shape"/>
<feGaussianBlur stdDeviation="150" result="effect1_foregroundBlur_209_97"/>
</filter>
<filter id="filter15_f_209_97" x="-473.613" y="1583.27" width="1209.38" height="1561.24" filterUnits="userSpaceOnUse" color-interpolation-filters="sRGB">
<feFlood flood-opacity="0" result="BackgroundImageFix"/>
<feBlend mode="normal" in="SourceGraphic" in2="BackgroundImageFix" result="shape"/>
<feGaussianBlur stdDeviation="150" result="effect1_foregroundBlur_209_97"/>
</filter>
<filter id="filter16_f_209_97" x="405.746" y="1756.03" width="1250.64" height="1280.33" filterUnits="userSpaceOnUse" color-interpolation-filters="sRGB">
<feFlood flood-opacity="0" result="BackgroundImageFix"/>
<feBlend mode="normal" in="SourceGraphic" in2="BackgroundImageFix" result="shape"/>
<feGaussianBlur stdDeviation="150" result="effect1_foregroundBlur_209_97"/>
</filter>
<filter id="filter17_f_209_97" x="93.3621" y="828.446" width="1528.02" height="1730.92" filterUnits="userSpaceOnUse" color-interpolation-filters="sRGB">
<feFlood flood-opacity="0" result="BackgroundImageFix"/>
<feBlend mode="normal" in="SourceGraphic" in2="BackgroundImageFix" result="shape"/>
<feGaussianBlur stdDeviation="150" result="effect1_foregroundBlur_209_97"/>
</filter>
<filter id="filter18_f_209_97" x="180.765" y="1452.63" width="1148.62" height="1679.06" filterUnits="userSpaceOnUse" color-interpolation-filters="sRGB">
<feFlood flood-opacity="0" result="BackgroundImageFix"/>
<feBlend mode="normal" in="SourceGraphic" in2="BackgroundImageFix" result="shape"/>
<feGaussianBlur stdDeviation="150" result="effect1_foregroundBlur_209_97"/>
</filter>
<filter id="filter19_f_209_97" x="359.108" y="1988.09" width="1206.64" height="1451.12" filterUnits="userSpaceOnUse" color-interpolation-filters="sRGB">
<feFlood flood-opacity="0" result="BackgroundImageFix"/>
<feBlend mode="normal" in="SourceGraphic" in2="BackgroundImageFix" result="shape"/>
<feGaussianBlur stdDeviation="150" result="effect1_foregroundBlur_209_97"/>
</filter>
<filter id="filter20_f_209_97" x="-473.613" y="1583.27" width="1209.38" height="1561.24" filterUnits="userSpaceOnUse" color-interpolation-filters="sRGB">
<feFlood flood-opacity="0" result="BackgroundImageFix"/>
<feBlend mode="normal" in="SourceGraphic" in2="BackgroundImageFix" result="shape"/>
<feGaussianBlur stdDeviation="150" result="effect1_foregroundBlur_209_97"/>
</filter>
<filter id="filter21_f_209_97" x="405.746" y="1756.03" width="1250.64" height="1280.33" filterUnits="userSpaceOnUse" color-interpolation-filters="sRGB">
<feFlood flood-opacity="0" result="BackgroundImageFix"/>
<feBlend mode="normal" in="SourceGraphic" in2="BackgroundImageFix" result="shape"/>
<feGaussianBlur stdDeviation="150" result="effect1_foregroundBlur_209_97"/>
</filter>
<filter id="filter22_f_209_97" x="93.3621" y="828.446" width="1528.02" height="1730.92" filterUnits="userSpaceOnUse" color-interpolation-filters="sRGB">
<feFlood flood-opacity="0" result="BackgroundImageFix"/>
<feBlend mode="normal" in="SourceGraphic" in2="BackgroundImageFix" result="shape"/>
<feGaussianBlur stdDeviation="150" result="effect1_foregroundBlur_209_97"/>
</filter>
<filter id="filter23_f_209_97" x="180.765" y="1452.63" width="1148.62" height="1679.06" filterUnits="userSpaceOnUse" color-interpolation-filters="sRGB">
<feFlood flood-opacity="0" result="BackgroundImageFix"/>
<feBlend mode="normal" in="SourceGraphic" in2="BackgroundImageFix" result="shape"/>
<feGaussianBlur stdDeviation="150" result="effect1_foregroundBlur_209_97"/>
</filter>
<filter id="filter24_f_209_97" x="359.108" y="1988.09" width="1206.64" height="1451.12" filterUnits="userSpaceOnUse" color-interpolation-filters="sRGB">
<feFlood flood-opacity="0" result="BackgroundImageFix"/>
<feBlend mode="normal" in="SourceGraphic" in2="BackgroundImageFix" result="shape"/>
<feGaussianBlur stdDeviation="150" result="effect1_foregroundBlur_209_97"/>
</filter>
<filter id="filter25_f_209_97" x="-113" y="-645" width="1389" height="1409" filterUnits="userSpaceOnUse" color-interpolation-filters="sRGB">
<feFlood flood-opacity="0" result="BackgroundImageFix"/>
<feBlend mode="normal" in="SourceGraphic" in2="BackgroundImageFix" result="shape"/>
<feGaussianBlur stdDeviation="150" result="effect1_foregroundBlur_209_97"/>
</filter>
<filter id="filter26_f_209_97" x="-502" y="-454" width="1525.5" height="1557" filterUnits="userSpaceOnUse" color-interpolation-filters="sRGB">
<feFlood flood-opacity="0" result="BackgroundImageFix"/>
<feBlend mode="normal" in="SourceGraphic" in2="BackgroundImageFix" result="shape"/>
<feGaussianBlur stdDeviation="150" result="effect1_foregroundBlur_209_97"/>
</filter>
<filter id="filter27_f_209_97" x="269.747" y="-177.966" width="1250.64" height="1280.33" filterUnits="userSpaceOnUse" color-interpolation-filters="sRGB">
<feFlood flood-opacity="0" result="BackgroundImageFix"/>
<feBlend mode="normal" in="SourceGraphic" in2="BackgroundImageFix" result="shape"/>
<feGaussianBlur stdDeviation="150" result="effect1_foregroundBlur_209_97"/>
</filter>
<filter id="filter28_f_209_97" x="-244.119" y="-918.553" width="1528.02" height="1730.92" filterUnits="userSpaceOnUse" color-interpolation-filters="sRGB">
<feFlood flood-opacity="0" result="BackgroundImageFix"/>
<feBlend mode="normal" in="SourceGraphic" in2="BackgroundImageFix" result="shape"/>
<feGaussianBlur stdDeviation="150" result="effect1_foregroundBlur_209_97"/>
</filter>
<filter id="filter29_f_209_97" x="48.8152" y="-319.551" width="1148.62" height="1679.06" filterUnits="userSpaceOnUse" color-interpolation-filters="sRGB">
<feFlood flood-opacity="0" result="BackgroundImageFix"/>
<feBlend mode="normal" in="SourceGraphic" in2="BackgroundImageFix" result="shape"/>
<feGaussianBlur stdDeviation="150" result="effect1_foregroundBlur_209_97"/>
</filter>
<filter id="filter30_f_209_97" x="411.001" y="-606.287" width="1206.64" height="1451.12" filterUnits="userSpaceOnUse" color-interpolation-filters="sRGB">
<feFlood flood-opacity="0" result="BackgroundImageFix"/>
<feBlend mode="normal" in="SourceGraphic" in2="BackgroundImageFix" result="shape"/>
<feGaussianBlur stdDeviation="150" result="effect1_foregroundBlur_209_97"/>
</filter>
<filter id="filter31_f_209_97" x="-113" y="-723" width="1389" height="1409" filterUnits="userSpaceOnUse" color-interpolation-filters="sRGB">
<feFlood flood-opacity="0" result="BackgroundImageFix"/>
<feBlend mode="normal" in="SourceGraphic" in2="BackgroundImageFix" result="shape"/>
<feGaussianBlur stdDeviation="150" result="effect1_foregroundBlur_209_97"/>
</filter>
<filter id="filter32_f_209_97" x="-502" y="-532" width="1525.5" height="1557" filterUnits="userSpaceOnUse" color-interpolation-filters="sRGB">
<feFlood flood-opacity="0" result="BackgroundImageFix"/>
<feBlend mode="normal" in="SourceGraphic" in2="BackgroundImageFix" result="shape"/>
<feGaussianBlur stdDeviation="150" result="effect1_foregroundBlur_209_97"/>
</filter>
<filter id="filter33_f_209_97" x="269.747" y="-255.966" width="1250.64" height="1280.33" filterUnits="userSpaceOnUse" color-interpolation-filters="sRGB">
<feFlood flood-opacity="0" result="BackgroundImageFix"/>
<feBlend mode="normal" in="SourceGraphic" in2="BackgroundImageFix" result="shape"/>
<feGaussianBlur stdDeviation="150" result="effect1_foregroundBlur_209_97"/>
</filter>
<filter id="filter34_f_209_97" x="-244.119" y="-996.553" width="1528.02" height="1730.92" filterUnits="userSpaceOnUse" color-interpolation-filters="sRGB">
<feFlood flood-opacity="0" result="BackgroundImageFix"/>
<feBlend mode="normal" in="SourceGraphic" in2="BackgroundImageFix" result="shape"/>
<feGaussianBlur stdDeviation="150" result="effect1_foregroundBlur_209_97"/>
</filter>
<filter id="filter35_f_209_97" x="48.8152" y="-397.551" width="1148.62" height="1679.06" filterUnits="userSpaceOnUse" color-interpolation-filters="sRGB">
<feFlood flood-opacity="0" result="BackgroundImageFix"/>
<feBlend mode="normal" in="SourceGraphic" in2="BackgroundImageFix" result="shape"/>
<feGaussianBlur stdDeviation="150" result="effect1_foregroundBlur_209_97"/>
</filter>
<filter id="filter36_f_209_97" x="411.001" y="-684.287" width="1206.64" height="1451.12" filterUnits="userSpaceOnUse" color-interpolation-filters="sRGB">
<feFlood flood-opacity="0" result="BackgroundImageFix"/>
<feBlend mode="normal" in="SourceGraphic" in2="BackgroundImageFix" result="shape"/>
<feGaussianBlur stdDeviation="150" result="effect1_foregroundBlur_209_97"/>
</filter>
<filter id="filter37_f_209_97" x="269.747" y="-255.966" width="1250.64" height="1280.33" filterUnits="userSpaceOnUse" color-interpolation-filters="sRGB">
<feFlood flood-opacity="0" result="BackgroundImageFix"/>
<feBlend mode="normal" in="SourceGraphic" in2="BackgroundImageFix" result="shape"/>
<feGaussianBlur stdDeviation="150" result="effect1_foregroundBlur_209_97"/>
</filter>
<filter id="filter38_f_209_97" x="-244.119" y="-996.553" width="1528.02" height="1730.92" filterUnits="userSpaceOnUse" color-interpolation-filters="sRGB">
<feFlood flood-opacity="0" result="BackgroundImageFix"/>
<feBlend mode="normal" in="SourceGraphic" in2="BackgroundImageFix" result="shape"/>
<feGaussianBlur stdDeviation="150" result="effect1_foregroundBlur_209_97"/>
</filter>
<filter id="filter39_f_209_97" x="48.8152" y="-397.551" width="1148.62" height="1679.06" filterUnits="userSpaceOnUse" color-interpolation-filters="sRGB">
<feFlood flood-opacity="0" result="BackgroundImageFix"/>
<feBlend mode="normal" in="SourceGraphic" in2="BackgroundImageFix" result="shape"/>
<feGaussianBlur stdDeviation="150" result="effect1_foregroundBlur_209_97"/>
</filter>
<filter id="filter40_f_209_97" x="411.001" y="-684.287" width="1206.64" height="1451.12" filterUnits="userSpaceOnUse" color-interpolation-filters="sRGB">
<feFlood flood-opacity="0" result="BackgroundImageFix"/>
<feBlend mode="normal" in="SourceGraphic" in2="BackgroundImageFix" result="shape"/>
<feGaussianBlur stdDeviation="150" result="effect1_foregroundBlur_209_97"/>
</filter>
<linearGradient id="paint0_linear_209_97" x1="905.409" y1="6047.77" x2="305.571" y2="5616.79" gradientUnits="userSpaceOnUse">
<stop stop-color="#06B6D4"/>
<stop offset="1" stop-color="#3B82F6"/>
</linearGradient>
<linearGradient id="paint1_linear_209_97" x1="912.664" y1="6961.79" x2="406.267" y2="6597.95" gradientUnits="userSpaceOnUse">
<stop stop-color="#06B6D4"/>
<stop offset="1" stop-color="#3B82F6"/>
</linearGradient>
<linearGradient id="paint2_linear_209_97" x1="1800.23" y1="5174.41" x2="2231.21" y2="4574.57" gradientUnits="userSpaceOnUse">
<stop stop-color="#06B6D4"/>
<stop offset="1" stop-color="#3B82F6"/>
</linearGradient>
<linearGradient id="paint3_linear_209_97" x1="886.208" y1="5181.66" x2="1250.05" y2="4675.27" gradientUnits="userSpaceOnUse">
<stop stop-color="#06B6D4"/>
<stop offset="1" stop-color="#3B82F6"/>
</linearGradient>
<linearGradient id="paint4_linear_209_97" x1="1079.41" y1="1969.77" x2="479.571" y2="1538.79" gradientUnits="userSpaceOnUse">
<stop stop-color="#06B6D4"/>
<stop offset="1" stop-color="#3B82F6"/>
</linearGradient>
<linearGradient id="paint5_linear_209_97" x1="1086.66" y1="2883.79" x2="580.267" y2="2519.95" gradientUnits="userSpaceOnUse">
<stop stop-color="#06B6D4"/>
<stop offset="1" stop-color="#3B82F6"/>
</linearGradient>
<linearGradient id="paint6_linear_209_97" x1="1079.41" y1="1969.77" x2="479.571" y2="1538.79" gradientUnits="userSpaceOnUse">
<stop stop-color="#06B6D4"/>
<stop offset="1" stop-color="#3B82F6"/>
</linearGradient>
<linearGradient id="paint7_linear_209_97" x1="1086.66" y1="2883.79" x2="580.267" y2="2519.95" gradientUnits="userSpaceOnUse">
<stop stop-color="#06B6D4"/>
<stop offset="1" stop-color="#3B82F6"/>
</linearGradient>
<clipPath id="clip0_209_97">
<rect width="1440" height="9015" fill="white"/>
</clipPath>
<clipPath id="clip1_209_97">
<rect width="1540" height="960" fill="white" transform="translate(-274 8364)"/>
</clipPath>
<clipPath id="clip2_209_97">
<rect width="1636" height="1020" fill="white" transform="translate(-190 5832)"/>
</clipPath>
<clipPath id="clip3_209_97">
<rect width="1636" height="1020" fill="white" transform="translate(1956 4079) rotate(90)"/>
</clipPath>
<clipPath id="clip4_209_97">
<rect width="1594" height="994" fill="white" transform="translate(-16 1754)"/>
</clipPath>
<clipPath id="clip5_209_97">
<rect width="1594" height="994" fill="white" transform="translate(-16 1754)"/>
</clipPath>
<clipPath id="clip6_209_97">
<rect width="1816" height="976" fill="white" transform="translate(-188 24)"/>
</clipPath>
<clipPath id="clip7_209_97">
<rect width="1816" height="1029" fill="white" transform="translate(-188 -54)"/>
</clipPath>
</defs>
</svg>
