<svg width="22" height="21" viewBox="0 0 22 21" fill="none" xmlns="http://www.w3.org/2000/svg">
<path d="M20.9689 8.9153C19.2585 4.91991 16.0655 1.74339 12.0614 0.0536854C11.9001 -0.00651341 11.7216 -0.00100265 11.5644 0.0690214C11.4071 0.139045 11.2837 0.267992 11.2205 0.428124C11.1861 0.508255 11.168 0.594437 11.1673 0.681639C11.1665 0.768842 11.1831 0.855314 11.2161 0.936027C11.2492 1.01674 11.2979 1.09007 11.3596 1.15174C11.4212 1.21341 11.4946 1.26219 11.5753 1.29523C15.2663 2.8546 18.2094 5.78362 19.7865 9.46709C19.857 9.6233 19.9858 9.74576 20.1454 9.80835C20.3049 9.87094 20.4826 9.86871 20.6405 9.80212C20.7214 9.76673 20.7943 9.71539 20.8548 9.65119C20.9154 9.587 20.9625 9.51126 20.9931 9.42848C21.0238 9.34571 21.0374 9.2576 21.0333 9.16942C21.0291 9.08125 21.0072 8.99483 20.9689 8.9153Z" fill="url(#paint0_linear_209_173)"/>
<path d="M11.2333 4.84425C13.4706 5.78664 15.2555 7.5597 16.2127 9.79073C16.2635 9.90078 16.3438 9.99463 16.4446 10.0619C16.5455 10.1291 16.663 10.1671 16.7842 10.1717C16.8729 10.1711 16.9603 10.1509 17.0403 10.1126C17.1914 10.0386 17.3083 9.90945 17.367 9.75178C17.4257 9.59412 17.4216 9.41996 17.3557 9.2652C16.2707 6.73223 14.2456 4.71884 11.7063 3.64869C11.5499 3.59318 11.3784 3.5989 11.226 3.6647C11.0737 3.73051 10.9519 3.85152 10.8852 4.00342C10.8234 4.16141 10.8252 4.33716 10.8901 4.49389C10.955 4.65062 11.078 4.77617 11.2333 4.84425Z" fill="url(#paint1_linear_209_173)"/>
<path d="M17.5592 12.6462C17.4167 12.4797 17.2399 12.3461 17.0409 12.2545C16.8419 12.1629 16.6254 12.1154 16.4063 12.1154C16.1872 12.1154 15.9708 12.1629 15.7717 12.2545C15.5727 12.3461 15.3959 12.4797 15.2535 12.6462C14.7148 13.1783 14.1762 13.7169 13.6441 14.2622C13.6204 14.2973 13.5899 14.3272 13.5544 14.3503C13.5189 14.3733 13.4791 14.389 13.4374 14.3964C13.3958 14.4037 13.353 14.4026 13.3118 14.3931C13.2705 14.3836 13.2316 14.3659 13.1974 14.341C12.8492 14.1505 12.4748 13.9994 12.1398 13.7892C10.6024 12.7928 9.23969 11.55 8.10639 10.1106C7.51468 9.41297 7.02579 8.63431 6.65462 7.79826C6.61426 7.72894 6.60066 7.64724 6.61639 7.56858C6.63213 7.48992 6.6761 7.41973 6.74002 7.37127C7.27868 6.84575 7.8042 6.31366 8.33629 5.775C8.50994 5.63075 8.6497 5.45003 8.74561 5.24567C8.84153 5.04131 8.89125 4.81832 8.89125 4.59258C8.89125 4.36683 8.84153 4.14385 8.74561 3.93949C8.6497 3.73513 8.50994 3.5544 8.33629 3.41015C7.91587 2.98316 7.49546 2.56932 7.06847 2.14233L5.75467 0.828529C5.60694 0.670249 5.42926 0.542872 5.23192 0.453789C5.03459 0.364705 4.82152 0.315683 4.60509 0.30957C4.38728 0.31675 4.17301 0.366874 3.97461 0.457057C3.77621 0.547239 3.59757 0.675706 3.44894 0.835094C2.90371 1.36718 2.38476 1.91898 1.82639 2.4445C1.3348 2.90814 1.04074 3.54334 1.00527 4.21815C0.958479 5.32483 1.15584 6.42825 1.58335 7.4501C2.40269 9.57434 3.58274 11.5411 5.07149 13.2637C7.02939 15.6167 9.46869 17.5229 12.2252 18.8539C13.448 19.5 14.7885 19.8932 16.1666 20.0101H16.4228C16.8435 20.0279 17.2629 19.9516 17.6504 19.7868C18.0379 19.6221 18.3837 19.3729 18.6628 19.0576C19.1226 18.5386 19.6416 18.0656 20.1343 17.573C20.3046 17.428 20.4415 17.2478 20.5353 17.0448C20.6291 16.8418 20.6778 16.6208 20.6778 16.3971C20.6778 16.1734 20.6291 15.9524 20.5353 15.7494C20.4415 15.5464 20.3046 15.3662 20.1343 15.2213C19.2847 14.3629 18.4263 13.5045 17.5592 12.6462ZM19.2146 16.6599L18.7219 17.146C18.3803 17.4744 18.0322 17.8029 17.6906 18.1904C17.5368 18.3693 17.3431 18.5094 17.1251 18.5995C16.9072 18.6897 16.6711 18.7273 16.4359 18.7094H16.252C15.0436 18.6051 13.8685 18.2588 12.7967 17.6912C10.2107 16.4336 7.92042 14.6425 6.07655 12.436C4.6749 10.8318 3.56345 8.99567 2.79204 7.00998C2.43182 6.16841 2.26139 5.25783 2.29281 4.34295C2.30784 3.99144 2.45853 3.65945 2.71321 3.41672C3.0548 3.08827 3.37011 2.75982 3.71827 2.4248L4.37517 1.76789C4.39669 1.72347 4.4303 1.68601 4.47212 1.65979C4.51395 1.63357 4.56231 1.61968 4.61167 1.61968C4.66103 1.61968 4.70939 1.63357 4.75122 1.65979C4.79304 1.68601 4.82663 1.72347 4.84814 1.76789C5.13718 2.05036 5.41966 2.3394 5.70213 2.62843L6.13569 3.06199L6.79259 3.71889L7.41663 4.34295C7.65969 4.586 7.64655 4.632 7.41663 4.85534L7.19329 5.07869C6.74659 5.53852 6.29333 5.98521 5.82037 6.44504C5.57337 6.67966 5.40579 6.98555 5.34102 7.32C5.27625 7.65445 5.31752 8.00078 5.45908 8.31064C5.87367 9.26284 6.4271 10.1483 7.10133 10.9383C8.32901 12.4826 9.80266 13.8143 11.4631 14.8797C11.7193 15.0373 11.9821 15.1687 12.212 15.2804L12.5667 15.4577C12.8176 15.6059 13.1031 15.6852 13.3944 15.6877C13.6213 15.6865 13.8454 15.638 14.0524 15.5452C14.2594 15.4525 14.4447 15.3175 14.5966 15.149C15.1155 14.6169 15.6411 14.0979 16.1929 13.5527C16.249 13.4796 16.3274 13.4265 16.4162 13.4016C16.508 13.4238 16.5893 13.4772 16.6461 13.5527C17.522 14.4286 18.3979 15.2891 19.2737 16.1344C19.4248 16.3643 19.4445 16.4234 19.2146 16.6599Z" fill="url(#paint2_linear_209_173)"/>
<defs>
<linearGradient id="paint0_linear_209_173" x1="16.1006" y1="0.012207" x2="16.1006" y2="9.85373" gradientUnits="userSpaceOnUse">
<stop stop-color="#C779D0"/>
<stop offset="1" stop-color="#FEAC5E"/>
</linearGradient>
<linearGradient id="paint1_linear_209_173" x1="14.1242" y1="3.61084" x2="14.1242" y2="10.1717" gradientUnits="userSpaceOnUse">
<stop stop-color="#C779D0"/>
<stop offset="1" stop-color="#FEAC5E"/>
</linearGradient>
<linearGradient id="paint2_linear_209_173" x1="10.8381" y1="0.30957" x2="10.8381" y2="20.0126" gradientUnits="userSpaceOnUse">
<stop stop-color="#C779D0"/>
<stop offset="1" stop-color="#FEAC5E"/>
</linearGradient>
</defs>
</svg>
