<svg width="209" height="70" viewBox="0 0 209 70" fill="none" xmlns="http://www.w3.org/2000/svg">
<path d="M45.6464 35.3536C45.4512 35.1583 45.4512 34.8417 45.6464 34.6464L48.8284 31.4645C49.0237 31.2692 49.3403 31.2692 49.5355 31.4645C49.7308 31.6597 49.7308 31.9763 49.5355 32.1716L46.7071 35L49.5355 37.8284C49.7308 38.0237 49.7308 38.3403 49.5355 38.5355C49.3403 38.7308 49.0237 38.7308 48.8284 38.5355L45.6464 35.3536ZM97 35.5H46V34.5H97V35.5Z" fill="url(#paint0_linear_109_346)"/>
<path d="M120.679 32.1847H118.463C118.378 31.7112 118.219 31.2945 117.987 30.9347C117.755 30.5748 117.471 30.2694 117.135 30.0185C116.799 29.7675 116.422 29.5781 116.006 29.4503C115.594 29.3224 115.156 29.2585 114.692 29.2585C113.854 29.2585 113.103 29.4692 112.44 29.8906C111.782 30.312 111.261 30.9299 110.878 31.7443C110.499 32.5587 110.31 33.553 110.31 34.7273C110.31 35.911 110.499 36.91 110.878 37.7244C111.261 38.5388 111.785 39.1544 112.447 39.571C113.11 39.9877 113.856 40.196 114.685 40.196C115.144 40.196 115.58 40.1345 115.991 40.0114C116.408 39.8835 116.785 39.6965 117.121 39.4503C117.457 39.2041 117.741 38.9034 117.973 38.5483C118.21 38.1884 118.373 37.7765 118.463 37.3125L120.679 37.3196C120.561 38.0346 120.331 38.6927 119.99 39.294C119.654 39.8906 119.221 40.4067 118.69 40.8423C118.165 41.2732 117.563 41.607 116.886 41.8438C116.209 42.0805 115.471 42.1989 114.67 42.1989C113.411 42.1989 112.289 41.9006 111.304 41.304C110.319 40.7027 109.543 39.8433 108.974 38.7259C108.411 37.6084 108.129 36.2756 108.129 34.7273C108.129 33.1742 108.413 31.8414 108.982 30.7287C109.55 29.6113 110.326 28.7543 111.311 28.1577C112.296 27.5563 113.416 27.2557 114.67 27.2557C115.442 27.2557 116.162 27.367 116.83 27.5895C117.502 27.8073 118.106 28.1293 118.641 28.5554C119.176 28.9768 119.618 29.4929 119.969 30.1037C120.319 30.7098 120.556 31.4034 120.679 32.1847ZM128.625 35.7074V37.554H122.808V35.7074H128.625ZM124.534 31.0909V42H122.41V31.0909H124.534ZM131.949 42.2202C130.935 42.2202 130.05 41.9834 129.292 41.5099C128.535 41.0365 127.948 40.3783 127.531 39.5355C127.114 38.688 126.906 37.7055 126.906 36.5881C126.906 35.4612 127.114 34.4763 127.531 33.6335C127.948 32.786 128.535 32.1278 129.292 31.6591C130.05 31.1856 130.935 30.9489 131.949 30.9489C132.967 30.9489 133.852 31.1856 134.605 31.6591C135.362 32.1278 135.949 32.786 136.366 33.6335C136.788 34.4763 136.998 35.4612 136.998 36.5881C136.998 37.7055 136.788 38.688 136.366 39.5355C135.949 40.3783 135.362 41.0365 134.605 41.5099C133.852 41.9834 132.967 42.2202 131.949 42.2202ZM131.949 40.402C132.635 40.402 133.196 40.2292 133.632 39.8835C134.072 39.5331 134.396 39.0691 134.605 38.4915C134.813 37.9138 134.917 37.2794 134.917 36.5881C134.917 35.892 134.813 35.2552 134.605 34.6776C134.396 34.0952 134.072 33.6288 133.632 33.2784C133.196 32.928 132.635 32.7528 131.949 32.7528C131.267 32.7528 130.706 32.928 130.265 33.2784C129.825 33.6288 129.501 34.0952 129.292 34.6776C129.084 35.2552 128.98 35.892 128.98 36.5881C128.98 37.2794 129.084 37.9138 129.292 38.4915C129.501 39.0691 129.825 39.5331 130.265 39.8835C130.706 40.2292 131.267 40.402 131.949 40.402ZM138.436 45.1463V40.1605H139.324C139.551 39.9522 139.743 39.7036 139.9 39.4148C140.06 39.1259 140.195 38.7827 140.304 38.3849C140.418 37.9872 140.513 37.5232 140.588 36.9929C140.664 36.4579 140.73 35.8471 140.787 35.1605L141.128 31.0909H148.543V40.1605H150.219V45.1463H148.145V42H140.539V45.1463H138.436ZM141.597 40.1605H146.469V32.9091H143.032L142.804 35.1605C142.695 36.3063 142.558 37.3007 142.392 38.1435C142.227 38.9815 141.962 39.6539 141.597 40.1605ZM155.469 42.2415C154.778 42.2415 154.153 42.1136 153.594 41.858C153.036 41.5975 152.593 41.2211 152.266 40.7287C151.944 40.2363 151.783 39.6326 151.783 38.9176C151.783 38.3021 151.902 37.7955 152.138 37.3977C152.375 37 152.695 36.6851 153.097 36.4531C153.5 36.2211 153.95 36.0459 154.447 35.9276C154.944 35.8092 155.451 35.7192 155.967 35.6577C156.62 35.5819 157.15 35.5204 157.558 35.473C157.965 35.4209 158.261 35.3381 158.445 35.2244C158.63 35.1108 158.722 34.9261 158.722 34.6705V34.6207C158.722 34.0005 158.547 33.5199 158.197 33.179C157.851 32.8381 157.335 32.6676 156.648 32.6676C155.933 32.6676 155.37 32.8262 154.958 33.1435C154.551 33.456 154.269 33.804 154.113 34.1875L152.117 33.733C152.354 33.0701 152.7 32.535 153.154 32.1278C153.613 31.7159 154.141 31.4176 154.738 31.233C155.335 31.0436 155.962 30.9489 156.62 30.9489C157.056 30.9489 157.517 31.0009 158.005 31.1051C158.497 31.2045 158.957 31.3892 159.383 31.6591C159.814 31.929 160.166 32.3149 160.441 32.8168C160.716 33.3139 160.853 33.9602 160.853 34.7557V42H158.779V40.5085H158.694C158.557 40.7831 158.351 41.053 158.076 41.3182C157.801 41.5833 157.449 41.8035 157.018 41.9787C156.587 42.1539 156.071 42.2415 155.469 42.2415ZM155.931 40.5369C156.518 40.5369 157.02 40.4209 157.437 40.1889C157.858 39.9569 158.178 39.6539 158.396 39.2798C158.618 38.901 158.729 38.4962 158.729 38.0653V36.6591C158.654 36.7348 158.507 36.8059 158.289 36.8722C158.076 36.9337 157.832 36.9882 157.558 37.0355C157.283 37.0781 157.015 37.1184 156.755 37.1562C156.495 37.1894 156.277 37.2178 156.102 37.2415C155.69 37.2936 155.313 37.3812 154.972 37.5043C154.636 37.6274 154.366 37.8049 154.163 38.0369C153.964 38.2642 153.864 38.5672 153.864 38.946C153.864 39.4716 154.058 39.8693 154.447 40.1392C154.835 40.4044 155.33 40.5369 155.931 40.5369Z" fill="#FEF4FF"/>
<path d="M0.5 35C0.5 15.9462 15.9462 0.5 35 0.5H174C193.054 0.5 208.5 15.9462 208.5 35C208.5 54.0538 193.054 69.5 174 69.5H35C15.9462 69.5 0.5 54.0538 0.5 35Z" stroke="url(#paint1_linear_109_346)"/>
<defs>
<linearGradient id="paint0_linear_109_346" x1="99.7818" y1="35" x2="94.3641" y2="52.0022" gradientUnits="userSpaceOnUse">
<stop offset="0.0481342" stop-color="#FEAC5E"/>
<stop offset="0.53115" stop-color="#C97BCC"/>
<stop offset="0.53125" stop-color="#C779D0"/>
<stop offset="1" stop-color="#4BC0C8"/>
</linearGradient>
<linearGradient id="paint1_linear_109_346" x1="-11.4" y1="7.46213e-06" x2="221.596" y2="42.8068" gradientUnits="userSpaceOnUse">
<stop offset="0.0481342" stop-color="#FEAC5E"/>
<stop offset="0.53115" stop-color="#C97BCC"/>
<stop offset="0.53125" stop-color="#C779D0"/>
<stop offset="1" stop-color="#4BC0C8"/>
</linearGradient>
</defs>
</svg>
