<svg width="209" height="70" viewBox="0 0 209 70" fill="none" xmlns="http://www.w3.org/2000/svg">
<path d="M51.3807 29.3438V27.4545H62.6378V29.3438H58.0994V42H55.9119V29.3438H51.3807ZM65.0472 46.0909C64.73 46.0909 64.4412 46.0649 64.1808 46.0128C63.9203 45.9654 63.7262 45.9134 63.5984 45.8565L64.1097 44.1165C64.498 44.2206 64.8436 44.2656 65.1467 44.2514C65.4497 44.2372 65.7172 44.1236 65.9492 43.9105C66.186 43.6974 66.3943 43.3494 66.5742 42.8665L66.837 42.142L62.8455 31.0909H65.1183L67.881 39.5568H67.9947L70.7575 31.0909H73.0373L68.5415 43.456C68.3332 44.0241 68.0681 44.5047 67.7461 44.8977C67.4241 45.2955 67.0406 45.5938 66.5955 45.7926C66.1504 45.9915 65.6344 46.0909 65.0472 46.0909ZM73.0692 45.1463V40.1605H73.957C74.1843 39.9522 74.3761 39.7036 74.5323 39.4148C74.6933 39.1259 74.8282 38.7827 74.9371 38.3849C75.0508 37.9872 75.1455 37.5232 75.2212 36.9929C75.297 36.4579 75.3633 35.8471 75.4201 35.1605L75.761 31.0909H83.1758V40.1605H84.8519V45.1463H82.7781V42H75.1715V45.1463H73.0692ZM76.2298 40.1605H81.1019V32.9091H77.6644L77.4371 35.1605C77.3282 36.3063 77.1909 37.3007 77.0252 38.1435C76.8595 38.9815 76.5943 39.6539 76.2298 40.1605ZM90.1023 42.2415C89.411 42.2415 88.786 42.1136 88.2273 41.858C87.6686 41.5975 87.2259 41.2211 86.8991 40.7287C86.5772 40.2363 86.4162 39.6326 86.4162 38.9176C86.4162 38.3021 86.5346 37.7955 86.7713 37.3977C87.008 37 87.3277 36.6851 87.7301 36.4531C88.1326 36.2211 88.5824 36.0459 89.0795 35.9276C89.5767 35.8092 90.0833 35.7192 90.5994 35.6577C91.2528 35.5819 91.7831 35.5204 92.1903 35.473C92.5975 35.4209 92.8935 35.3381 93.0781 35.2244C93.2628 35.1108 93.3551 34.9261 93.3551 34.6705V34.6207C93.3551 34.0005 93.1799 33.5199 92.8295 33.179C92.4839 32.8381 91.9678 32.6676 91.2812 32.6676C90.5663 32.6676 90.0028 32.8262 89.5909 33.1435C89.1837 33.456 88.902 33.804 88.7457 34.1875L86.75 33.733C86.9867 33.0701 87.3324 32.535 87.7869 32.1278C88.2462 31.7159 88.7741 31.4176 89.3707 31.233C89.9673 31.0436 90.5947 30.9489 91.2528 30.9489C91.6884 30.9489 92.1501 31.0009 92.6378 31.1051C93.1302 31.2045 93.5895 31.3892 94.0156 31.6591C94.4465 31.929 94.7992 32.3149 95.0739 32.8168C95.3485 33.3139 95.4858 33.9602 95.4858 34.7557V42H93.4119V40.5085H93.3267C93.1894 40.7831 92.9834 41.053 92.7088 41.3182C92.4342 41.5833 92.0814 41.8035 91.6506 41.9787C91.2197 42.1539 90.7036 42.2415 90.1023 42.2415ZM90.5639 40.5369C91.151 40.5369 91.6529 40.4209 92.0696 40.1889C92.491 39.9569 92.8106 39.6539 93.0284 39.2798C93.2509 38.901 93.3622 38.4962 93.3622 38.0653V36.6591C93.2865 36.7348 93.1397 36.8059 92.9219 36.8722C92.7088 36.9337 92.465 36.9882 92.1903 37.0355C91.9157 37.0781 91.6482 37.1184 91.3878 37.1562C91.1274 37.1894 90.9096 37.2178 90.7344 37.2415C90.3224 37.2936 89.946 37.3812 89.6051 37.5043C89.2689 37.6274 88.9991 37.8049 88.7955 38.0369C88.5966 38.2642 88.4972 38.5672 88.4972 38.946C88.4972 39.4716 88.6913 39.8693 89.0795 40.1392C89.4678 40.4044 89.9626 40.5369 90.5639 40.5369Z" fill="#FEF4FF"/>
<path d="M158.854 35.3536C159.049 35.1583 159.049 34.8417 158.854 34.6464L155.672 31.4645C155.476 31.2692 155.16 31.2692 154.964 31.4645C154.769 31.6597 154.769 31.9763 154.964 32.1716L157.793 35L154.964 37.8284C154.769 38.0237 154.769 38.3403 154.964 38.5355C155.16 38.7308 155.476 38.7308 155.672 38.5355L158.854 35.3536ZM107.5 35.5H158.5V34.5H107.5V35.5Z" fill="white"/>
<path d="M35 0.5H174C193.054 0.5 208.5 15.9462 208.5 35C208.5 54.0538 193.054 69.5 174 69.5H35C15.9462 69.5 0.5 54.0538 0.5 35C0.5 15.9462 15.9462 0.5 35 0.5Z" stroke="url(#paint0_linear_109_344)"/>
<defs>
<linearGradient id="paint0_linear_109_344" x1="0" y1="0" x2="209" y2="70" gradientUnits="userSpaceOnUse">
<stop stop-color="#FEAC5E"/>
<stop offset="0.494792" stop-color="#C779D0"/>
<stop offset="1" stop-color="#4BC0C8"/>
</linearGradient>
</defs>
</svg>
