<svg width="28" height="28" viewBox="0 0 28 28" fill="none" xmlns="http://www.w3.org/2000/svg">
<circle cx="14" cy="14" r="14" fill="url(#paint0_linear_302_62)"/>
<path fill-rule="evenodd" clip-rule="evenodd" d="M10.516 14.9443L7.66076 13.8204C7.37076 13.7057 7.36825 13.2739 7.65742 13.1563L19.3755 8.38868C19.624 8.28734 19.8803 8.51689 19.8262 8.79203L17.7233 19.4604C17.6737 19.7123 17.3937 19.8265 17.1961 19.675L14.3254 17.4769C14.1511 17.3434 13.9134 17.3506 13.7466 17.494L12.155 18.8624C11.9703 19.0217 11.6919 18.9329 11.6212 18.6929L10.516 14.9443ZM17.0234 10.7215L11.4431 14.3463C11.2292 14.4856 11.1285 14.7579 11.1976 15.013L11.801 17.2489C11.8438 17.4074 12.0619 17.3911 12.0826 17.2274L12.2395 16.0012C12.2691 15.7704 12.3735 15.5577 12.5354 15.3988L17.1407 10.8838C17.2268 10.7996 17.1237 10.6565 17.0234 10.7215Z" fill="white"/>
<path d="M11.4431 14.3463L17.0234 10.7215C17.1237 10.6565 17.2268 10.7996 17.1407 10.8838L12.5354 15.3988C12.3735 15.5577 12.2691 15.7704 12.2395 16.0012L12.0826 17.2274C12.0619 17.3911 11.8438 17.4074 11.801 17.2489L11.1976 15.013C11.1285 14.7579 11.2292 14.4856 11.4431 14.3463Z" fill="#EAEAEA"/>
<defs>
<linearGradient id="paint0_linear_302_62" x1="14" y1="0" x2="14" y2="28" gradientUnits="userSpaceOnUse">
<stop stop-color="#FEAC5E"/>
<stop offset="0.520833" stop-color="#C779D0"/>
<stop offset="1" stop-color="#4BC0C8"/>
</linearGradient>
</defs>
</svg>
