<svg width="28" height="28" viewBox="0 0 28 28" fill="none" xmlns="http://www.w3.org/2000/svg">
<circle cx="14" cy="14" r="14" fill="url(#paint0_linear_302_63)"/>
<path fill-rule="evenodd" clip-rule="evenodd" d="M19.8155 9.72845C20.1943 10.1625 20.328 11.1448 20.328 11.1448C20.328 11.1448 20.4617 12.3098 20.4617 13.4748V14.5485C20.4617 15.6907 20.328 16.8557 20.328 16.8557C20.328 16.8557 20.1943 17.838 19.8155 18.272C19.3493 18.7934 18.8227 18.8396 18.5614 18.8626C18.548 18.8638 18.5352 18.8649 18.5232 18.866C16.7184 19.0259 14.0001 19.0259 14.0001 19.0259C14.0001 19.0259 10.6356 19.003 9.61073 18.8889C9.55627 18.876 9.48921 18.8663 9.41294 18.8553C9.0836 18.8079 8.58275 18.7358 8.18473 18.2721C7.80597 17.8381 7.67227 16.8558 7.67227 16.8558C7.67227 16.8558 7.53857 15.7136 7.53857 14.5485V13.4749C7.53857 12.3098 7.67227 11.1448 7.67227 11.1448C7.67227 11.1448 7.78366 10.1625 8.18473 9.72845C8.6509 9.20708 9.17752 9.16086 9.4388 9.13793C9.45227 9.13675 9.46503 9.13563 9.47704 9.13451C11.2818 8.99746 14.0001 8.97461 14.0001 8.97461C14.0001 8.97461 16.7184 8.99746 18.5232 9.13451C18.5418 9.13624 18.5622 9.13785 18.5842 9.13958C18.8525 9.16065 19.3625 9.20072 19.8155 9.72845ZM12.4404 16.6505V11.6934L16.6738 14.229L12.4404 16.6505Z" fill="white"/>
<defs>
<linearGradient id="paint0_linear_302_63" x1="14" y1="0" x2="14" y2="28" gradientUnits="userSpaceOnUse">
<stop stop-color="#FEAC5E"/>
<stop offset="0.520833" stop-color="#C779D0"/>
<stop offset="1" stop-color="#4BC0C8"/>
</linearGradient>
</defs>
</svg>
